<svg viewBox="-320 -320 640 640"  xmlns="http://www.w3.org/2000/svg"><path d="M1.8982025386783973e-14,-310 A310,310 0 0 1 154.99999999999997,-268.467875173176 L104.99999999999999,-181.86533479473212 A210,210 0 0 0 1.2858791391047208e-14,-210 Z" fill="rgba(43.14%,25.1%,66.67%,1)"></path><path d="M154.99999999999997,-268.467875173176 A310,310 0 0 1 268.46787517317597,-155 L181.8653347947321,-105 A210,210 0 0 0 104.99999999999999,-181.86533479473212 Z" fill="rgba(69.61%,23.73%,69.41%,1)"></path><path d="M268.46787517317597,-155 A310,310 0 0 1 310,0 L210,0 A210,210 0 0 0 181.8653347947321,-105 Z" fill="rgba(93.33%,26.27%,58.43%,1)"></path><path d="M310,0 A310,310 0 0 1 268.467875173176,154.99999999999994 L181.86533479473212,104.99999999999997 A210,210 0 0 0 210,0 Z" fill="rgba(100%,37.06%,39.02%,1)"></path><path d="M268.467875173176,154.99999999999994 A310,310 0 0 1 154.99999999999997,268.467875173176 L104.99999999999999,181.86533479473212 A210,210 0 0 0 181.86533479473212,104.99999999999997 Z" fill="rgba(100%,54.9%,21.96%,1)"></path><path d="M154.99999999999997,268.467875173176 A310,310 0 0 1 1.8982025386783973e-14,310 L1.2858791391047208e-14,210 A210,210 0 0 0 104.99999999999999,181.86533479473212 Z" fill="rgba(84.9%,75.88%,19.8%,1)"></path><path d="M1.8982025386783973e-14,310 A310,310 0 0 1 -155.00000000000003,268.46787517317597 L-105.00000000000003,181.8653347947321 A210,210 0 0 0 1.2858791391047208e-14,210 Z" fill="rgba(68.63%,94.12%,35.69%,1)"></path><path d="M-155.00000000000003,268.46787517317597 A310,310 0 0 1 -268.4678751731759,155.0000000000001 L-181.8653347947321,105.00000000000007 A210,210 0 0 0 -105.00000000000003,181.8653347947321 Z" fill="rgba(37.84%,96.47%,38.04%,1)"></path><path d="M-268.4678751731759,155.0000000000001 A310,310 0 0 1 -310,3.7964050773567946e-14 L-210,2.5717582782094416e-14 A210,210 0 0 0 -181.8653347947321,105.00000000000007 Z" fill="rgba(15.69%,91.76%,55.29%,1)"></path><path d="M-310,3.7964050773567946e-14 A310,310 0 0 1 -268.46787517317597,-155.00000000000003 L-181.8653347947321,-105.00000000000003 A210,210 0 0 0 -210,2.5717582782094416e-14 Z" fill="rgba(10.39%,78.04%,75.88%,1)"></path><path d="M-268.46787517317597,-155.00000000000003 A310,310 0 0 1 -155.00000000000014,-268.4678751731759 L-105.0000000000001,-181.86533479473206 A210,210 0 0 0 -181.8653347947321,-105.00000000000003 Z" fill="rgba(18.43%,58.82%,87.84%,1)"></path><path d="M-155.00000000000014,-268.4678751731759 A310,310 0 0 1 -5.694607616035192e-14,-310 L-3.857637417314162e-14,-210 A210,210 0 0 0 -105.0000000000001,-181.86533479473206 Z" fill="rgba(32.55%,39.8%,83.73%,1)"></path></svg>
