<svg viewBox="-320 -320 640 640" xmlns="http://www.w3.org/2000/svg"><g><path d="M-136.45082640932137,269.2678443517586 A8,8 0 0 1 -147.4027622622658,272.7130830698336 A310,310 0 0 1 -9.23840869511968,-309.86231104279517 A8,8 0 0 1 -0.9999981481488494,-301.8658643062069 L-0.9999981481489968,-217.814141031599 A8,8 0 0 1 -8.669722986749033,-209.82096154420088 A210,210 0 0 0 -101.96959512844406,183.58159403747752 A8,8 0 0 1 -98.70615753232215,194.16769683661084 Z" fill="rgba(20.39%,39.61%,64.31%,1)"></path><text transform="translate(-252.9827523059396 -59.9977252544761)" text-anchor="middle"><tspan x="0px" font-size="24px">🇨🇳</tspan><tspan x="0px" font-size="12px" dy="1.3em">123</tspan></text></g><g><path d="M301.745599865168,-8.57863576797274 A8,8 0 0 1 309.99942302841254,-0.5980986969842602 A310,310 0 0 1 -130.89374070319593,281.0103710625722 A8,8 0 0 1 -134.663831318322,270.1659722546496 L-96.91916244132284,195.06582473950195 A8,8 0 0 1 -86.47681402048,191.3681285817137 A210,210 0 0 0 209.99040163992112,2.0077896066583367 A8,8 0 0 1 217.7361979352747,-5.911695046302814 Z" fill="rgba(20.39%,39.61%,64.31%,1)"></path><text transform="translate(139.95535072976426 219.11754791003997)" text-anchor="middle"><tspan x="0px" font-size="24px">🇺🇸</tspan><tspan x="0px" font-size="12px" dy="1.3em">95</tspan></text></g><g><path d="M160.13499265982975,-255.8921338288184 A8,8 0 0 1 171.35259088049753,-258.3375497262077 A310,310 0 0 1 309.41315810979927,-19.065612723443802 A8,8 0 0 1 301.682140469477,-10.577625035153954 L217.6727385395838,-7.9106843134840235 A8,8 0 0 1 209.44022523952975,-15.322925687186942 A210,210 0 0 0 118.08070746827502,-173.65755533172654 A8,8 0 0 1 115.78342425836851,-184.49444082854168 Z" fill="rgba(20.39%,39.61%,64.31%,1)"></path><text transform="translate(225.20048490879708 -129.941300581619)" text-anchor="middle"><tspan x="0px" font-size="24px">🇬🇧</tspan><tspan x="0px" font-size="12px" dy="1.3em">45</tspan></text></g><g><path d="M29.170018622273005,-300.4548386084102 A8,8 0 0 1 38.11880855866594,-307.64745478236574 A310,310 0 0 1 155.657467874625,-268.087210987134 A8,8 0 0 1 158.4360968370961,-256.9474717693403 L114.08452843563477,-185.54977876906364 A8,8 0 0 1 103.35172402594831,-182.8070598769758 A210,210 0 0 0 28.215333661770032,-208.09587921521893 A8,8 0 0 1 21.32512476776955,-216.77001426227906 Z" fill="rgba(20.39%,39.61%,64.31%,1)"></path><text transform="translate(82.93716912363953 -246.41717873913908)" text-anchor="middle"><tspan x="0px" font-size="24px">🇨🇿</tspan><tspan x="0px" font-size="12px" dy="1.3em">21</tspan></text></g><g><path d="M0.9999981481491709,-301.8658643062069 A8,8 0 0 1 9.23840869512001,-309.86231104279517 A310,310 0 0 1 19.72264536845933,-309.3719723240455 A8,8 0 0 1 27.178752622861936,-300.6415065081581 L19.333858768358468,-216.95668216202696 A8,8 0 0 1 10.951577084041359,-209.71424119351624 A210,210 0 0 0 8.669722986749193,-209.82096154420088 A8,8 0 0 1 0.9999981481491638,-217.814141031599 Z" fill="rgba(20.39%,39.61%,64.31%,1)"></path><text transform="translate(12.146698753991139 -259.7161098379917)" text-anchor="middle"><tspan x="0px" font-size="24px">🇨🇾</tspan><tspan x="0px" font-size="12px" dy="1.3em">4</tspan></text></g></svg>
