<svg viewBox="0 0 900 250" xmlns="http://www.w3.org/2000/svg">
    <g transform="translate(29 30)"><g fill="none" font-size="10" font-family="sans-serif" text-anchor="middle"><path class="domain" stroke="#000" d="M0.5,-6V0.5H840.5V-6"></path><g class="tick" transform="translate(0, 0)"><line stroke="#000" y2="-6" x1="0.5" x2="0.5"></line><text fill="#000" y="-9" x="0.5" dy="0em">0</text></g><g class="tick" transform="translate(136.58536585365854, 0)"><line stroke="#000" y2="-6" x1="0.5" x2="0.5"></line><text fill="#000" y="-9" x="0.5" dy="0em">20</text></g><g class="tick" transform="translate(273.1707317073171, 0)"><line stroke="#000" y2="-6" x1="0.5" x2="0.5"></line><text fill="#000" y="-9" x="0.5" dy="0em">40</text></g><g class="tick" transform="translate(409.7560975609756, 0)"><line stroke="#000" y2="-6" x1="0.5" x2="0.5"></line><text fill="#000" y="-9" x="0.5" dy="0em">60</text></g><g class="tick" transform="translate(546.3414634146342, 0)"><line stroke="#000" y2="-6" x1="0.5" x2="0.5"></line><text fill="#000" y="-9" x="0.5" dy="0em">80</text></g><g class="tick" transform="translate(682.9268292682926, 0)"><line stroke="#000" y2="-6" x1="0.5" x2="0.5"></line><text fill="#000" y="-9" x="0.5" dy="0em">100</text></g><g class="tick" transform="translate(819.5121951219512, 0)"><line stroke="#000" y2="-6" x1="0.5" x2="0.5"></line><text fill="#000" y="-9" x="0.5" dy="0em">120</text></g></g></g><g transform="translate(29 30)"><g fill="none" font-size="10" font-family="sans-serif" text-anchor="end"><path class="domain" stroke="#000" d="M-6,0.5H0.5V190.5H-6"></path><g class="tick" transform="translate(0, 22.80188679245283)"><line stroke="#000" x2="-6" y1="0.5" y2="0.5"></line><text fill="#000" x="-9" y="0.5" dy="0.32em">🇨🇳</text></g><g class="tick" transform="translate(0, 58.65094339622641)"><line stroke="#000" x2="-6" y1="0.5" y2="0.5"></line><text fill="#000" x="-9" y="0.5" dy="0.32em">🇺🇸</text></g><g class="tick" transform="translate(0, 94.5)"><line stroke="#000" x2="-6" y1="0.5" y2="0.5"></line><text fill="#000" x="-9" y="0.5" dy="0.32em">🇬🇧</text></g><g class="tick" transform="translate(0, 130.34905660377356)"><line stroke="#000" x2="-6" y1="0.5" y2="0.5"></line><text fill="#000" x="-9" y="0.5" dy="0.32em">🇨🇿</text></g><g class="tick" transform="translate(0, 166.19811320754715)"><line stroke="#000" x2="-6" y1="0.5" y2="0.5"></line><text fill="#000" x="-9" y="0.5" dy="0.32em">🇨🇾</text></g></g></g><g transform="translate(30 30)" class="series"><g class="bar" fill="rgb(46% 84% 30%)"><rect x="0px" y="7.169811320754718px" height="32.264150943396224px" width="840px"></rect><text x="835px" y="27.80188679245283px" text-anchor="end">123</text><rect x="0px" y="43.0188679245283px" height="32.264150943396224px" width="648.780487804878px"></rect><text x="643.780487804878px" y="63.65094339622641px" text-anchor="end">95</text><rect x="0px" y="78.86792452830188px" height="32.264150943396224px" width="307.3170731707317px"></rect><text x="302.3170731707317px" y="99.5px" text-anchor="end">45</text><rect x="0px" y="114.71698113207546px" height="32.264150943396224px" width="143.41463414634148px"></rect><text x="138.41463414634148px" y="135.34905660377356px" text-anchor="end">21</text><rect x="0px" y="150.56603773584905px" height="32.264150943396224px" width="27.31707317073171px"></rect><text x="22.31707317073171px" y="171.19811320754715px" text-anchor="end">4</text></g></g>
</svg>
