<svg viewBox="0 0 900 250" xmlns="http://www.w3.org/2000/svg"><path d="M31.27853881278539,219.15555555555557 L33.48401826484018,216.8082897110427 35.78538812785388,210.88972521378648 38.08675799086758,207.92417539911253 40.38812785388128,207.43274931598359 42.68949771689498,204.1794863701549 44.99086757990868,202.4904461523611 47.29223744292237,199.9327096612135 49.593607305936075,205.44415807607464 51.894977168949765,203.85701390689297 54.19634703196347,205.700686074219 56.49771689497717,196.5478377238962 58.799086757990864,197.83312988430785 61.10045662100457,194.2729740368344 63.401826484018265,201.38540834314827 65.70319634703196,203.0501268582241 68.00456621004567,205.47797104285294 70.30593607305936,209.59609374127055 72.60730593607306,204.421312598601 74.90867579908675,203.0211723286822 77.21004566210046,200.13779364990438 79.51141552511416,204.56391343702157 81.81278538812785,203.34853557668526 84.11415525114155,203.4718581522014 86.41552511415526,205.20354853639327 88.71689497716895,200.86030602596546 91.01826484018264,199.5017957879757 93.31963470319634,191.79183465988433 95.62100456621005,197.95636225286566 97.92237442922375,192.1710482813006 100.22374429223744,190.81230090552805 102.52511415525113,193.1082385919671 104.82648401826484,191.38543967970347 107.12785388127854,186.7569337432819 109.42922374429224,187.40017015149218 111.73059360730593,187.58386283549888 114.03196347031964,187.994796002137 116.33333333333333,190.05329898439155 118.63470319634703,190.4378145364876 120.93607305936074,191.1102486565565 123.23744292237443,196.96438385596338 125.53881278538813,198.63023784448978 127.84018264840182,194.94267776923527 130.1415525114155,192.44873388925944 132.44292237442923,192.71078554187147 134.74429223744292,190.69387843910826 137.04566210045664,191.98124077205807 139.34703196347033,187.36602020807817 141.64840182648402,188.83431140128368 143.9497716894977,189.3042105860669 146.2511415525114,194.48519087080223 148.55251141552512,189.2884191901839 150.8538812785388,189.7737884708137 153.15525114155253,185.60182248525996 155.45662100456622,188.33771931590786 157.7579908675799,181.9708129054039 160.05936073059362,178.0514315652121 162.3607305936073,173.371205542832 164.662100456621,171.46213641205705 166.9634703196347,164.5871824123983 169.26484018264838,172.63383313043522 171.5662100456621,171.8024805427421 173.8675799086758,170.79331545814958 176.1689497716895,175.8055214509967 178.4703196347032,173.0757828706769 180.77168949771692,166.7977265567144 183.07305936073058,171.7569744965401 185.37442922374427,167.9164705480947 187.675799086758,172.20941855392851 189.97716894977168,165.03183287786777 192.2785388127854,166.20790312129427 194.5799086757991,165.31884412922466 196.88127853881278,164.1938012181988 199.1826484018265,163.33300206479106 201.4840182648402,159.54227618495628 203.78538812785388,157.98605104712095 206.08675799086757,164.7870291282249 208.38812785388126,162.34165282399786 210.68949771689498,174.26129988513662 212.99086757990867,168.00393405310257 215.29223744292239,165.07524299496507 217.59360730593608,161.1724596324325 219.89497716894977,166.08590144066943 222.19634703196348,164.07314772613233 224.49771689497717,170.43595433371277 226.79908675799086,167.51170085881685 229.10045662100455,170.94669599833247 231.40182648401824,165.59228398933442 233.70319634703196,165.77199547152435 236.00456621004565,162.38228840033452 238.30593607305937,164.05769674585503 240.6073059360731,156.4547181645534 242.90867579908678,158.65074285977775 245.21004566210047,150.55359972516493 247.51141552511416,157.8075370224403 249.81278538812785,160.4723064456035 252.11415525114157,164.94394240539364 254.41552511415526,165.50960099078773 256.716894977169,168.31537782072309 259.0182648401826,167.2748354784548 261.31963470319636,168.74433130734496 263.6210045662101,158.48833275748913 265.92237442922374,165.41024176799655 268.2237442922375,166.42667138382004 270.5251141552511,169.08969442348678 272.82648401826486,168.16108249163955 275.12785388127855,174.9213584072781 277.42922374429224,173.268893014995 279.73059360730593,174.50512489221785 282.0319634703196,167.56661690207116 284.3333333333333,169.89304988058075 286.63470319634706,170.52368320664323 288.93607305936075,175.51982733537182 291.23744292237444,174.70409466051478 293.53881278538813,174.0958096411894 295.8401826484018,165.62825839557559 298.14155251141557,168.1528604134287 300.44292237442926,163.69674610260483 302.74429223744295,166.7393186530424 305.04566210045664,162.98634471443444 307.34703196347033,165.07322955800493 309.648401826484,162.6932975042725 311.9497716894977,166.3856556276388 314.2511415525114,163.16145968847664 316.5525114155251,167.20171368460007 318.8538812785388,150.2386078414078 321.1552511415525,152.46109607311303 323.4566210045662,150.6829661671668 325.7579908675799,150.06486941760602 328.0593607305936,140.99015356854775 330.3607305936073,139.32381976942017 332.66210045662103,136.73456482539422 334.9634703196347,137.08344020039607 337.2648401826484,129.47028678271892 339.5662100456621,136.73803517150472 341.8675799086758,134.5484118728309 344.16894977168954,145.55394956890763 346.47031963470323,142.0916264114217 348.7716894977169,141.5522267557788 351.07305936073055,143.32442763364884 353.37442922374424,138.302666565656 355.675799086758,132.5483937619984 357.9771689497717,133.18175920388887 360.27853881278537,130.62079904295263 362.57990867579906,136.91440925630818 364.88127853881275,125.73840968290631 367.1826484018265,123.85260725832987 369.4840182648402,122.74764936154259 371.7853881278539,119.27112190944882 374.08675799086757,112.55333789489328 376.38812785388126,113.87504123378689 378.689497716895,107.35366619985474 380.9908675799087,109.8635920342029 383.2922374429224,105.47124493490055 385.5936073059361,110.89934897252985 387.8949771689498,108.2052377862957 390.1963470319635,118.06045294170309 392.49771689497715,120.57329605615543 394.79908675799084,131.8031680490494 397.1004566210045,124.03371250765102 399.4018264840183,129.324176345325 401.70319634703196,125.94260120042756 404.00456621004565,126.7111547517245 406.30593607305934,125.50945849457545 408.60730593607303,133.41796709619922 410.9086757990868,129.88286977663248 413.21004566210047,135.4459396306343 415.51141552511416,130.59340507397172 417.81278538812785,136.12849746038825 420.11415525114154,131.59206460646544 422.4155251141553,133.27342624575274 424.716894977169,132.2739102030639 427.01826484018267,137.25737948529436 429.31963470319636,138.26540549255998 431.62100456621005,138.46671260718017 433.92237442922374,137.01437598508426 436.2237442922374,134.97213863106546 438.5251141552511,130.7087602668037 440.8264840182648,130.53569814186363 443.1278538812785,118.6904895295622 445.42922374429224,121.9379204565727 447.73059360730593,120.80797562892782 450.0319634703196,125.05239934924744 452.3333333333333,120.10870084470669 454.634703196347,120.39217436384527 456.9360730593607,108.63739243109116 459.2374429223744,116.37112728598268 461.5388127853881,110.1957267004424 463.8401826484019,113.98068904059707 466.14155251141557,112.0270839275812 468.44292237442926,109.97719759892453 470.74429223744295,108.67476610711282 473.04566210045664,110.75072649311454 475.34703196347033,107.5970566682718 477.648401826484,107.3949903483318 479.9497716894977,103.67643689928404 482.2511415525114,106.22746113505127 484.55251141552515,110.85496954252211 486.85388127853884,108.68085337503416 489.1552511415525,111.2669721950731 491.4566210045662,113.42644155343822 493.7579908675799,111.52020073956224 496.0593607305936,113.17884574467188 498.3607305936073,107.45579772856259 500.662100456621,93.77745056617734 502.96347031963467,94.53039356814774 505.26484018264836,94.71135753778479 507.56621004566216,96.63978036914847 509.86757990867585,100.04069274964804 512.1689497716895,93.12489317939843 514.4703196347032,92.07257856052729 516.7716894977169,92.05181647348955 519.0730593607307,93.87256443783659 521.3744292237443,95.28816817035306 523.6757990867579,100.29607291522434 525.9771689497717,103.89454997845556 528.2785388127854,105.57855750938054 530.5799086757991,99.94840877583778 532.8812785388128,98.44349227090787 535.1826484018266,94.21586506043133 537.4840182648402,92.27016691115733 539.7853881278538,88.82381439479894 542.0867579908676,84.43215348540477 544.3881278538813,84.42104372264697 546.689497716895,82.14179666921754 548.9908675799087,83.57903367160435 551.2922374429223,88.46660783402876 553.5936073059361,79.46409322838946 555.8949771689498,77.11501480492507 558.1963470319635,76.13448643708594 560.4977168949772,74.17916418526838 562.7990867579908,69.50650348457935 565.1004566210046,69.75037903725138 567.4018264840182,67.01590045467924 569.703196347032,65.11481585251357 572.0045662100456,61.73856428845082 574.3059360730593,65.19473455419842 576.6073059360731,63.52000305610758 578.9086757990868,68.31890346023368 581.2100456621005,69.80995482495612 583.5114155251142,70.35478219602157 585.8127853881278,68.98070125513934 588.1141552511416,73.36757308392677 590.4155251141552,65.93942831582413 592.716894977169,67.31080076287748 595.0182648401826,68.91920255779104 597.3196347031964,71.7580369543495 599.6210045662101,68.44910991969596 601.9223744292237,71.2592755864363 604.2237442922375,72.33668776998863 606.5251141552511,67.77076588303433 608.8264840182649,63.558188286654 611.1278538812785,65.3487642129758 613.4292237442922,61.78074623311278 615.7305936073059,67.64942512859864 618.0319634703196,63.1107643522823 620.3333333333333,69.38197449183642 622.6347031963471,64.10864943273643 624.9360730593608,66.40382985753405 627.2374429223745,68.89872174349478 629.5388127853881,72.3015773304358 631.8401826484019,68.70013810275145 634.1415525114155,66.23957950898932 636.4429223744293,65.3670588459685 638.7442922374429,64.89350006660922 641.0456621004566,61.98619966356287 643.3470319634704,63.903781450207134 645.648401826484,66.02316835861694 647.9497716894978,61.10745480929006 650.2511415525114,57.54275765869775 652.5525114155251,60.0524122589959 654.8538812785388,61.33326943347362 657.1552511415525,65.9309408091371 659.4566210045662,71.79434044684365 661.7579908675799,79.38886780017998 664.0593607305935,77.45450841030728 666.3607305936074,77.07309253999577 668.662100456621,74.99053361783686 670.9634703196348,78.54264571186931 673.2648401826484,74.54002614486592 675.5662100456622,83.140385846752 677.8675799086758,79.39528481263525 680.1689497716895,85.13262921215818 682.4703196347032,88.21804982203258 684.7716894977169,89.11511675907485 687.0730593607306,92.09377444793901 689.3744292237443,90.0274444714822 691.675799086758,91.78283355171834 693.9771689497717,92.73292616935804 696.2785388127854,95.98714760655938 698.5799086757991,91.57371496279731 700.8812785388128,93.53321258814806 703.1826484018264,94.79898902416947 705.4840182648402,86.6746487760158 707.7853881278538,91.19092050963715 710.0867579908676,90.66743559695348 712.3881278538813,87.79309121117359 714.6894977168951,84.2733264540285 716.9908675799087,92.5126780455794 719.2922374429224,89.16030382637322 721.5936073059361,94.11923227990839 723.8949771689498,97.77330807033199 726.1963470319635,97.06268526974107 728.4977168949772,91.89664466347432 730.7990867579908,95.11142685621616 733.1004566210045,90.05003427316112 735.4018264840183,99.75511248990009 737.703196347032,92.49119362564032 740.0045662100457,88.00228407606335 742.3059360730593,88.7682102929308 744.6073059360731,90.32151081633899 746.9086757990867,82.60497130943992 749.2100456621005,81.10415860914014 751.5114155251141,83.61233445516362 753.8127853881278,82.40916679114378 756.1141552511415,81.98290010785396 758.4155251141553,84.77100561111442 760.716894977169,83.53983245115938 763.0182648401827,86.46947709973946 765.3196347031964,78.77699045964923 767.6210045662101,82.37485644287509 769.9223744292237,82.30535807587026 772.2237442922374,82.27201622964236 774.5251141552511,79.05236091729935 776.8264840182648,74.65378682113402 779.1278538812785,72.02788237204274 781.4292237442922,72.17344599175956 783.730593607306,65.92960302788347 786.0319634703196,71.12804062538791 788.3333333333334,65.93589815176423 790.634703196347,72.03310966837748 792.9360730593608,68.96151126128134 795.2374429223744,64.58256079120497 797.5388127853881,65.76743712999001 799.8401826484018,63.61674246339231 802.1415525114155,57.42831351857345 804.4429223744293,57.90750843567159 806.744292237443,57.16084043328908 809.0456621004566,60.05291821540317 811.3470319634703,60.2083796751497 813.648401826484,63.64346131267061 815.9497716894977,63.95235412328552 818.2511415525114,69.92485071810569 820.552511415525,71.54304147962688 822.8538812785388,80.0690701565992 825.1552511415525,79.56990257500621 827.4566210045663,80.95906004660847 829.7579908675799,83.83404478748903 832.0593607305937,86.83707426074528 834.3607305936073,86.99838266802647 836.662100456621,91.52770088460781 838.9634703196347,91.10264862046944 841.2648401826484,95.22477518817456 843.566210045662,89.8200669159454 845.8675799086758,95.92314240933467 848.1689497716895,95.775499471609 850.4703196347033,92.55017377954557 852.7716894977169,89.67829621357362 855.0730593607306,94.1119347314227 857.3744292237443,90.73909589478009 859.6757990867579,94.06340253281243 861.9771689497717,90.12073751968907 864.2785388127853,93.755899269751 866.5799086757991,93.125725710563 868.8812785388127,101.31552312190364" fill="none" stroke="rgba(20.39%,39.61%,64.31%,1)" stroke-width="1.5px" stroke-miterlimit="1"></path><g transform="translate(0 220)"><g fill="none" font-size="10" font-family="sans-serif" text-anchor="middle"><path class="domain" stroke="#000" d="M30.5,6V0.5H870.5V6"></path><g class="tick" transform="translate(30, 0)"><line stroke="#000" y2="6" x1="0.5" x2="0.5"></line><text fill="#000" y="9" x="0.5" dy="0.71em">1990</text></g><g class="tick" transform="translate(101.34246575342466, 0)"><line stroke="#000" y2="6" x1="0.5" x2="0.5"></line><text fill="#000" y="9" x="0.5" dy="0.71em">February</text></g><g class="tick" transform="translate(165.78082191780823, 0)"><line stroke="#000" y2="6" x1="0.5" x2="0.5"></line><text fill="#000" y="9" x="0.5" dy="0.71em">March</text></g><g class="tick" transform="translate(237.12328767123287, 0)"><line stroke="#000" y2="6" x1="0.5" x2="0.5"></line><text fill="#000" y="9" x="0.5" dy="0.71em">April</text></g><g class="tick" transform="translate(306.16438356164383, 0)"><line stroke="#000" y2="6" x1="0.5" x2="0.5"></line><text fill="#000" y="9" x="0.5" dy="0.71em">May</text></g><g class="tick" transform="translate(377.5068493150685, 0)"><line stroke="#000" y2="6" x1="0.5" x2="0.5"></line><text fill="#000" y="9" x="0.5" dy="0.71em">June</text></g><g class="tick" transform="translate(446.5479452054795, 0)"><line stroke="#000" y2="6" x1="0.5" x2="0.5"></line><text fill="#000" y="9" x="0.5" dy="0.71em">July</text></g><g class="tick" transform="translate(517.8904109589041, 0)"><line stroke="#000" y2="6" x1="0.5" x2="0.5"></line><text fill="#000" y="9" x="0.5" dy="0.71em">August</text></g><g class="tick" transform="translate(589.2328767123288, 0)"><line stroke="#000" y2="6" x1="0.5" x2="0.5"></line><text fill="#000" y="9" x="0.5" dy="0.71em">September</text></g><g class="tick" transform="translate(658.2739726027397, 0)"><line stroke="#000" y2="6" x1="0.5" x2="0.5"></line><text fill="#000" y="9" x="0.5" dy="0.71em">October</text></g><g class="tick" transform="translate(729.6164383561644, 0)"><line stroke="#000" y2="6" x1="0.5" x2="0.5"></line><text fill="#000" y="9" x="0.5" dy="0.71em">November</text></g><g class="tick" transform="translate(798.6575342465753, 0)"><line stroke="#000" y2="6" x1="0.5" x2="0.5"></line><text fill="#000" y="9" x="0.5" dy="0.71em">December</text></g></g></g><g transform="translate(30 0)"><g fill="none" font-size="10" font-family="sans-serif" text-anchor="end"><path class="domain" stroke="#000" d="M-6,220.5H0.5V30.5H-6"></path><g class="tick" transform="translate(0, 220)"><line stroke="#000" x2="-6" y1="0.5" y2="0.5"></line><text fill="#000" x="-9" y="0.5" dy="0.32em">0</text></g><g class="tick" transform="translate(0, 198.88888888888889)"><line stroke="#000" x2="-6" y1="0.5" y2="0.5"></line><text fill="#000" x="-9" y="0.5" dy="0.32em">50</text></g><g class="tick" transform="translate(0, 177.77777777777777)"><line stroke="#000" x2="-6" y1="0.5" y2="0.5"></line><text fill="#000" x="-9" y="0.5" dy="0.32em">100</text></g><g class="tick" transform="translate(0, 156.66666666666669)"><line stroke="#000" x2="-6" y1="0.5" y2="0.5"></line><text fill="#000" x="-9" y="0.5" dy="0.32em">150</text></g><g class="tick" transform="translate(0, 135.55555555555554)"><line stroke="#000" x2="-6" y1="0.5" y2="0.5"></line><text fill="#000" x="-9" y="0.5" dy="0.32em">200</text></g><g class="tick" transform="translate(0, 114.44444444444444)"><line stroke="#000" x2="-6" y1="0.5" y2="0.5"></line><text fill="#000" x="-9" y="0.5" dy="0.32em">250</text></g><g class="tick" transform="translate(0, 93.33333333333334)"><line stroke="#000" x2="-6" y1="0.5" y2="0.5"></line><text fill="#000" x="-9" y="0.5" dy="0.32em">300</text></g><g class="tick" transform="translate(0, 72.22222222222223)"><line stroke="#000" x2="-6" y1="0.5" y2="0.5"></line><text fill="#000" x="-9" y="0.5" dy="0.32em">350</text></g><g class="tick" transform="translate(0, 51.111111111111114)"><line stroke="#000" x2="-6" y1="0.5" y2="0.5"></line><text fill="#000" x="-9" y="0.5" dy="0.32em">400</text></g><g class="tick" transform="translate(0, 30)"><line stroke="#000" x2="-6" y1="0.5" y2="0.5"></line><text fill="#000" x="-9" y="0.5" dy="0.32em">450</text></g></g></g></svg>
