<svg viewBox="0 0 900 250" xmlns="http://www.w3.org/2000/svg"><path d="M31.27853881278539,220 L33.48401826484018,220 35.78538812785388,212.02680344879786 38.08675799086758,213.56915328938945 40.38812785388128,208.86641019346803 42.68949771689498,209.2327956822174 44.99086757990868,206.09878950988104 47.29223744292237,204.25118816717756 49.593607305936075,209.01441715082697 51.894977168949765,208.93812257303964 54.19634703196347,202.5202137034338 56.49771689497717,202.18188784728022 58.799086757990864,197.61038369448153 61.10045662100457,199.4660116011579 63.401826484018265,206.17077544385353 65.70319634703196,208.2034622160677 68.00456621004567,212.59159120606046 70.30593607305936,213.91457224723467 72.60730593607306,206.5909825989276 74.90867579908675,208.74626281708453 77.21004566210046,207.97518707517142 79.51141552511416,208.88239194298572 81.81278538812785,207.38362214576185 84.11415525114155,209.75399378371588 86.41552511415526,205.08610244236942 88.71689497716895,205.4104508327802 91.01826484018264,196.84076823832285 93.31963470319634,196.30462725842273 95.62100456621005,198.1754410252575 97.92237442922375,196.48952678726477 100.22374429223744,197.91161542607895 102.52511415525113,197.4267170979313 104.82648401826484,189.97678486625068 107.12785388127854,191.07541224924606 109.42922374429224,191.09133633704187 111.73059360730593,192.72992763605086 114.03196347031964,194.57030260293936 116.33333333333333,194.37177749035556 118.63470319634703,194.1998692256955 120.93607305936074,196.54369444721155 123.23744292237443,201.90505846471967 125.53881278538813,202.94871635045382 127.84018264840182,196.69539177130713 130.1415525114155,197.825531850549 132.44292237442923,194.4137117212752 134.74429223744292,196.33326633467985 137.04566210045664,190.74325866222338 139.34703196347033,192.17444497468222 141.64840182648402,192.6145312088003 143.9497716894977,194.06515825268292 146.2511415525114,194.17717153554418 148.55251141552512,195.52655850632866 150.8538812785388,190.70984592077193 153.15525114155253,190.73276157890777 155.45662100456622,187.97423109430378 157.7579908675799,186.2892914113681 160.05936073059362,179.34343474978573 162.3607305936073,178.04148523054636 164.662100456621,167.84909942595255 166.9634703196347,170.1907611856149 169.26484018264838,176.7085506473513 171.5662100456621,176.1873748412516 173.8675799086758,179.78272447953464 176.1689497716895,182.48778173720584 178.4703196347032,170.37202827012797 180.77168949771692,171.11620506267855 183.07305936073058,172.5022278165805 185.37442922374427,172.4795264850722 187.675799086758,169.57997453188915 189.97716894977168,170.2415289014994 192.2785388127854,169.08820077632242 194.5799086757991,169.63732263518907 196.88127853881278,168.5361087971866 199.1826484018265,167.69488945611647 201.4840182648402,163.32445070415284 203.78538812785388,162.80548966838296 206.08675799086757,166.87825112373685 208.38812785388126,167.77028517539006 210.68949771689498,174.16502987858286 212.99086757990867,172.7383294878847 215.29223744292239,164.0814852302467 217.59360730593608,167.31526720209774 219.89497716894977,168.67245020613956 222.19634703196348,170.11907686461348 224.49771689497717,170.9723067760615 226.79908675799086,171.83017936478132 229.10045662100455,170.16047362280327 231.40182648401824,171.24578202360357 233.70319634703196,166.26596043922802 236.00456621004565,167.15873816740316 238.30593607305937,161.26701919230294 240.6073059360731,161.1235333823096 242.90867579908678,155.97536752601815 245.21004566210047,156.0681287417945 247.51141552511416,163.35858646177874 249.81278538812785,164.79078495156784 252.11415525114157,169.06393821376497 254.41552511415526,171.1230116504874 256.716894977169,172.61067910650027 259.0182648401826,172.43101452927354 261.31963470319636,165.9296723872121 263.6210045662101,163.73894754220896 265.92237442922374,170.20331843143018 268.2237442922375,170.78956363678043 270.5251141552511,172.90155561962484 272.82648401826486,173.9945738730848 275.12785388127855,176.69289005504106 277.42922374429224,177.69211333187062 279.73059360730593,171.07645652527052 282.0319634703196,172.4178417245971 284.3333333333333,174.32291593767116 286.63470319634706,174.93251026651512 288.93607305936075,178.81058044189226 291.23744292237444,179.02257316647876 293.53881278538813,169.80566879284362 295.8401826484018,172.24349192820904 298.14155251141557,168.85412800912925 300.44292237442926,170.62081553500786 302.74429223744295,166.7184041662001 305.04566210045664,168.91835301922387 307.34703196347033,167.2808190016373 309.648401826484,168.03911967308315 311.9497716894977,168.8594997596633 314.2511415525114,168.14318973335784 316.5525114155251,154.9868748496421 318.8538812785388,155.84136162493502 321.1552511415525,155.70586971167265 323.4566210045662,155.99492911668847 325.7579908675799,144.06752506030998 328.0593607305936,145.30863207451182 330.3607305936073,142.1383921810706 332.66210045662103,141.70887282063754 334.9634703196347,134.33714961700002 337.2648401826484,134.58701267182389 339.5662100456621,139.1637488662066 341.8675799086758,139.39416033216625 344.16894977168954,146.7579552589774 346.47031963470323,147.00106482297315 348.7716894977169,147.737860396114 351.07305936073055,147.64290613961325 353.37442922374424,135.70087176669125 355.675799086758,137.20010743592923 357.9771689497717,134.67356190498657 360.27853881278537,137.5613262137041 362.57990867579906,132.26793315165398 364.88127853881275,130.05688818887057 367.1826484018265,125.59052817754159 369.4840182648402,127.58085065412942 371.7853881278539,118.35566950875283 374.08675799086757,117.35080548670732 376.38812785388126,113.05999714571307 378.689497716895,113.11299148973866 380.9908675799087,110.32555123815884 383.2922374429224,110.58685961732138 385.5936073059361,112.78815629331491 387.8949771689498,115.10166152654804 390.1963470319635,126.06736038729414 392.49771689497715,124.89177456211982 394.79908675799084,128.8832264375722 397.1004566210045,129.46010020270347 399.4018264840183,132.12349359892337 401.70319634703196,131.08723563844174 404.00456621004565,129.71747835957973 406.30593607305934,129.82793700053963 408.60730593607303,133.13195559139353 410.9086757990868,135.63962653837905 413.21004566210047,134.0519877572355 415.51141552511416,134.91188357993678 417.81278538812785,136.92062085982042 420.11415525114154,136.81823867425226 422.4155251141553,137.88655547848217 424.716894977169,137.3706655478391 427.01826484018267,142.96586100609733 429.31963470319636,142.58388399852475 431.62100456621005,141.08309644027844 433.92237442922374,141.62457802230557 436.2237442922374,134.12798524909812 438.5251141552511,136.2522512194153 440.8264840182648,122.72371850433744 443.1278538812785,123.3501624285683 445.42922374429224,124.49725768234482 447.73059360730593,127.15742596526424 450.0319634703196,125.08244022927954 452.3333333333333,124.42717935067142 454.634703196347,114.3306039049109 456.9360730593607,114.14925788529347 459.2374429223744,113.81450424342391 461.5388127853881,115.58480048002023 463.8401826484019,117.71279623289448 466.14155251141557,116.34556243354629 468.44292237442926,112.65506523073957 470.74429223744295,114.79095464678197 473.04566210045664,111.91715812401898 475.34703196347033,112.43742991403198 477.648401826484,106.61312217397332 479.9497716894977,108.59333428480272 482.2511415525114,113.89871611954212 484.55251141552515,115.59781283124703 486.85388127853884,114.81520051893975 489.1552511415525,115.58545070103733 491.4566210045662,115.78309826748156 493.7579908675799,115.83867924552666 496.0593607305936,111.28800818544687 498.3607305936073,112.76342874475435 500.662100456621,97.92086087437688 502.96347031963467,98.84887207411245 505.26484018264836,100.9216972738875 507.56621004566216,100.95825887511347 509.86757990867585,97.88172077869993 512.1689497716895,97.44337168536357 514.4703196347032,97.12481491252018 516.7716894977169,96.37029497945477 519.0730593607307,98.86955970556147 521.3744292237443,101.65119652470369 523.6757990867579,108.10656319209235 525.9771689497717,108.37750154473916 528.2785388127854,103.8157409996584 530.5799086757991,104.6759309838455 532.8812785388128,98.84837202841169 535.1826484018266,98.53434356639627 537.4840182648402,92.098904016674 539.7853881278538,94.18248993949932 542.0867579908676,89.8107173173612 544.3881278538813,88.73952222861152 546.689497716895,87.80996711093289 548.9908675799087,87.89751217756901 551.2922374429223,84.8295396914489 553.5936073059361,84.42069317602648 555.8949771689498,80.07168854398864 558.1963470319635,80.45296494305086 560.4977168949772,72.37368922793749 562.7990867579908,74.03378900425051 565.1004566210046,72.54827827242227 567.4018264840182,71.33437896064365 569.703196347032,67.31895900201411 572.0045662100456,66.99262878103883 574.3059360730593,67.88876437302366 576.6073059360731,71.46425026720948 578.9086757990868,72.82060081141933 581.2100456621005,74.27907040604094 583.5114155251142,74.21732440287744 585.8127853881278,74.10912869413215 588.1141552511416,70.39945010605871 590.4155251141552,70.25790682178862 592.716894977169,73.02617990386972 595.0182648401826,74.47211169122613 597.3196347031964,72.43295618344101 599.6210045662101,74.78597129018559 601.9223744292237,75.98973118184585 604.2237442922375,76.65516627595343 606.5251141552511,67.4152941164891 608.8264840182649,69.1677163416831 611.1278538812785,66.71874446379357 613.4292237442922,66.84686745963396 615.7305936073059,68.31314089002342 618.0319634703196,67.42955345090115 620.3333333333333,68.60873636672397 622.6347031963471,69.17529534757625 624.9360730593608,72.20743453997062 627.2374429223745,73.77210561944386 629.5388127853881,74.14706860199948 631.8401826484019,74.37624278548313 634.1415525114155,68.42853481826074 636.4429223744293,70.92421497384407 638.7442922374429,67.33021624711157 641.0456621004566,67.4457860310983 643.3470319634704,70.87218982934334 645.648401826484,70.34164686458163 647.9497716894978,62.490149069145446 650.2511415525114,63.24247849906766 652.5525114155251,65.92112197301032 654.8538812785388,67.27588483747533 657.1552511415525,75.6921936900392 659.4566210045662,77.8017267308646 661.7579908675799,81.25668654070145 664.0593607305935,82.38329898801328 666.3607305936074,78.94805287191957 668.662100456621,81.82523666758553 670.9634703196348,78.50711768425259 673.2648401826484,80.84613773573358 675.5662100456622,83.21097175025875 677.8675799086758,86.22163486149478 680.1689497716895,91.54749246145923 682.4703196347032,93.7486698391357 684.7716894977169,97.11571564109734 687.0730593607306,96.4122529539044 689.3744292237443,96.1375580525877 691.675799086758,98.4779682623133 693.9771689497717,99.81689458290901 696.2785388127854,100.3056261125242 698.5799086757991,97.7053923942919 700.8812785388128,98.46802244856634 703.1826484018264,92.5248038371742 705.4840182648402,91.5474678291138 707.7853881278538,94.12686820335473 710.0867579908676,95.09120330629561 712.3881278538813,88.96937225598813 714.6894977168951,91.7000455661406 716.9908675799087,92.8194306696749 719.2922374429224,94.10948087070359 721.5936073059361,102.917007490065 723.8949771689498,102.95319430741492 726.1963470319635,96.30875411664681 728.4977168949772,96.21512316943941 730.7990867579908,92.95852284167944 733.1004566210045,94.42091771199404 735.4018264840183,96.45180672776652 737.703196347032,97.1312337920925 740.0045662100457,93.45538399783649 742.3059360730593,93.80542645009187 744.6073059360731,87.35678548217874 746.9086757990867,88.1618236380661 749.2100456621005,87.68921956304223 751.5114155251141,90.45531796483851 753.8127853881278,85.36697276709882 756.1141552511415,86.30137861381922 758.4155251141553,88.52488514089274 760.716894977169,89.35847348599398 763.0182648401827,84.52848259942115 765.3196347031964,83.78848276565188 767.6210045662101,86.16076064722736 769.9223744292237,87.39682358174232 772.2237442922374,83.84092189119252 774.5251141552511,85.57079909932173 776.8264840182648,75.16356461503653 779.1278538812785,76.34636087800794 781.4292237442922,69.91788461244798 783.730593607306,71.24533528927498 786.0319634703196,70.5775152042055 788.3333333333334,71.27483134352565 790.634703196347,73.4443713139944 792.9360730593608,73.27998976724697 795.2374429223744,69.55385353885845 797.5388127853881,70.85445930402514 799.8401826484018,62.82752617799895 802.1415525114155,61.858434795850656 804.4429223744293,60.17087221954574 806.744292237443,61.563652547350756 809.0456621004566,64.99142328819113 811.3470319634703,65.55156245800896 813.648401826484,69.72119657185897 815.9497716894977,68.77605222565816 818.2511415525114,77.07791823537661 820.552511415525,76.4505439024241 822.8538812785388,83.85893013779068 825.1552511415525,83.88838108097119 827.4566210045663,87.84415798064794 829.7579908675799,89.35087699967656 832.0593607305937,90.38186324820865 834.3607305936073,91.3168611739917 836.662100456621,97.13471262831388 838.9634703196347,96.2715513061919 841.2648401826484,95.63839132788496 843.566210045662,95.1327236714184 845.8675799086758,99.88222245693562 848.1689497716895,101.31837575467415 850.4703196347033,92.9503856057886 852.7716894977169,94.79418041146933 855.0730593607306,93.64571705092317 857.3744292237443,96.29399882892673 859.6757990867579,94.13798911987459 861.9771689497717,95.54712740375157 864.2785388127853,97.57642654468705 866.5799086757991,98.68712009724746 868.8812785388127,110.19115201649485 L868.8812785388127,86.27009162825897 L866.5799086757991,85.64549796118683 864.2785388127853,76.9780334604462 861.9771689497717,78.74370247729033 859.6757990867579,77.35668731962164 857.3744292237443,80.50099081087257 855.0730593607306,77.66785880007652 852.7716894977169,78.66835496614567 850.4703196347033,76.38008513782066 848.1689497716895,77.9579272181318 845.8675799086758,81.29277645460266 843.566210045662,81.55940107690753 841.2648401826484,79.0393216146611 838.9634703196347,79.05811061380254 836.662100456621,76.89733492987602 834.3607305936073,75.51169386208747 832.0593607305937,72.20670830601364 829.7579908675799,71.95973907795798 827.4566210045663,66.32869409187538 825.1552511415525,66.09554201748563 822.8538812785388,64.92549605178081 820.552511415525,64.03572040312918 818.2511415525114,54.82747248455257 815.9497716894977,55.888108017202 813.648401826484,48.12664528760058 811.3470319634703,50.201848169375154 809.0456621004566,45.40991859214731 806.744292237443,46.020018362019556 804.4429223744293,43.27714248093929 802.1415525114155,42.407233001575435 799.8401826484018,48.28627062183159 797.5388127853881,49.02564564120334 795.2374429223744,49.58346965100148 792.9360730593608,50.274073020467284 790.634703196347,57.40274371364569 788.3333333333334,57.76772603433329 786.0319634703196,56.086026296125226 783.730593607306,57.5717329091805 781.4292237442922,56.96038003942226 779.1278538812785,58.25223898240381 776.8264840182648,58.5981169984758 774.5251141552511,59.549720477311325 772.2237442922374,66.9212792003579 769.9223744292237,68.47253141827431 767.6210045662101,67.74449048814347 765.3196347031964,67.3213683629441 763.0182648401827,70.53319052494837 760.716894977169,72.26542652325159 758.4155251141553,69.57846243241437 756.1141552511415,70.55825611977272 753.8127853881278,66.5791974646591 751.5114155251141,65.96752868768252 749.2100456621005,65.48484646960344 746.9086757990867,67.35835099056027 744.6073059360731,75.69114486160726 742.3059360730593,76.93239518598165 740.0045662100457,73.36823817678012 737.703196347032,72.78684608351838 735.4018264840183,83.4007659882511 733.1004566210045,83.34005802565446 730.7990867579908,79.52569353260589 728.4977168949772,81.70596477231169 726.1963470319635,81.49637205633763 723.8949771689498,83.65680883282715 721.5936073059361,77.6216221388423 719.2922374429224,79.04794454032012 716.9908675799087,77.88231209084782 714.6894977168951,78.07720155625194 712.3881278538813,72.42859894239712 710.0867579908676,72.92302602016323 707.7853881278538,76.5605545549059 705.4840182648402,76.37595308280581 703.1826484018264,79.06864589622651 700.8812785388128,79.62169208054715 698.5799086757991,76.94334900806456 696.2785388127854,77.02036330987818 693.9771689497717,77.02213235649123 691.675799086758,78.55878357107218 689.3744292237443,75.39707851674981 687.0730593607306,75.0772462979389 684.7716894977169,73.38049293250506 682.4703196347032,75.66756023988106 680.1689497716895,70.10165636680733 677.8675799086758,69.31717437097066 675.5662100456622,68.51001989202007 673.2648401826484,68.17202437841985 670.9634703196348,63.69376341021416 668.662100456621,64.50867459748048 666.3607305936074,62.442726585264154 664.0593607305935,63.38662074152643 661.7579908675799,64.00044958951588 659.4566210045662,63.381330756293806 657.1552511415525,51.30057485440574 654.8538812785388,51.892352945889 652.5525114155251,45.42204630426383 650.2511415525114,45.990115371055055 647.9497716894978,46.21888378206975 645.648401826484,46.45126960682941 643.3470319634704,49.273415495475405 641.0456621004566,49.268645517532434 638.7442922374429,50.11185094777517 636.4429223744293,50.698229548521766 634.1415525114155,51.0887225677335 631.8401826484019,53.07523867472355 629.5388127853881,56.78244941364969 627.2374429223745,58.73472467041617 624.9360730593608,51.77346390280195 622.6347031963471,51.137153025698666 620.3333333333333,53.81590542162181 618.0319634703196,53.77324458947817 615.7305936073059,52.620657427141566 613.4292237442922,51.78995174698042 611.1278538812785,50.54252778856636 608.8264840182649,50.825035887296366 606.5251141552511,52.0843914601316 604.2237442922375,54.59638450810999 601.9223744292237,56.352298372972285 599.6210045662101,57.079791745297484 597.3196347031964,57.127670999616754 595.0182648401826,56.957708521104195 592.716894977169,51.78208741080715 590.4155251141552,52.62028366531118 588.1141552511416,57.68976467630941 585.8127853881278,58.94204603207564 583.5114155251142,54.63351218660256 581.2100456621005,55.851563089482056 578.9086757990868,53.41274893177703 576.6073059360731,54.56908430457938 574.3059360730593,50.303679735537315 572.0045662100456,51.33157554587217 569.703196347032,49.12262601756129 567.4018264840182,49.87473497005138 565.1004566210046,53.99018034834671 562.7990867579908,55.410130352360426 560.4977168949772,57.48388307785331 558.1963470319635,60.10698142761777 555.8949771689498,61.192135204528626 553.5936073059361,61.860603256714484 551.2922374429223,72.15845250870021 548.9908675799087,72.95890506733267 546.689497716895,67.51143071448496 544.3881278538813,67.50205413445141 542.0867579908676,69.70293113085413 539.7853881278538,70.78525748137571 537.4840182648402,77.07664079010556 535.1826484018266,78.60386421720526 532.8812785388128,83.8131263161757 530.5799086757991,83.02004245100795 528.2785388127854,87.84331294142851 525.9771689497717,91.92828430496638 523.6757990867579,85.00869297002839 521.3744292237443,86.01800229266925 519.0730593607307,77.54870935376488 516.7716894977169,78.20262149787732 514.4703196347032,77.44221260579582 512.1689497716895,78.28991887850003 509.86757990867585,84.71456374669248 507.56621004566216,86.85405284255737 505.26484018264836,79.16200888077276 502.96347031963467,78.78564153202649 500.662100456621,77.70920716347439 498.3607305936073,80.08443020226244 496.0593607305936,97.21468260398578 493.7579908675799,99.68876022358319 491.4566210045662,98.40184689505236 489.1552511415525,99.88177571150091 486.85388127853884,94.0504874203019 484.55251141552515,93.82465733630546 482.2511415525114,91.59709518031923 479.9497716894977,92.72042394549219 477.648401826484,92.26043792017755 475.34703196347033,92.82215819000103 473.04566210045664,93.95404281646745 470.74429223744295,96.85847771948137 468.44292237442926,94.95775470744509 466.14155251141557,94.44753044431307 463.8401826484019,99.35032308586558 461.5388127853881,98.88179642020411 459.2374429223744,101.42819301344035 456.9360730593607,102.0531390039893 454.634703196347,103.07690585425283 452.3333333333333,106.02149072689011 450.0319634703196,108.91954894393848 447.73059360730593,111.56154420946169 445.42922374429224,106.10717107411784 443.1278538812785,107.22788836200117 440.8264840182648,114.55050955732773 438.5251141552511,116.63976645369848 436.2237442922374,120.34177267633336 433.92237442922374,120.902088279893 431.62100456621005,122.31236314635964 429.31963470319636,123.3719360796857 427.01826484018267,122.62701353056266 424.716894977169,122.21455649275168 422.4155251141553,118.64306029102107 420.11415525114154,118.88717750554171 417.81278538812785,119.50852494101765 415.51141552511416,119.8679566331835 413.21004566210047,119.68600991603007 410.9086757990868,121.54473349873707 408.60730593607303,118.55378835546583 406.30593607305934,116.693728235647 404.00456621004565,112.0807887969924 401.70319634703196,112.41298606494489 399.4018264840183,112.85237687566057 397.1004566210045,113.26861297696634 394.79908675799084,117.17280209431709 392.49771689497715,114.46421284005315 390.1963470319635,103.1901699659801 387.8949771689498,104.401830061288 385.5936073059361,96.26898301779786 383.2922374429224,96.25142194412895 380.9908675799087,95.17581737993143 378.689497716895,96.48217269103357 376.38812785388126,98.99529147110037 374.08675799086757,99.61792844509887 371.7853881278539,104.05149397315954 369.4840182648402,104.34875310564081 367.1826484018265,109.22224130359768 364.88127853881275,110.05723283628093 362.57990867579906,121.0203551622111 360.27853881278537,121.13609307557023 357.9771689497717,118.55139324915639 355.675799086758,118.76460681308106 353.37442922374424,122.70856853837026 351.07305936073055,126.67924292696586 348.7716894977169,125.70485066257338 346.47031963470323,126.18228990369172 344.16894977168954,130.92358361417513 341.8675799086758,129.83958445070692 339.5662100456621,122.10766921677236 337.2648401826484,122.22054975896845 334.9634703196347,120.09266939531491 332.66210045662103,123.50990035824738 330.3607305936073,122.94251736937971 328.0593607305936,125.22726261176736 325.7579908675799,133.34793420238736 323.4566210045662,136.76471039184048 321.1552511415525,136.06430955574126 318.8538812785388,137.320043419309 316.5525114155251,144.0585254796472 314.2511415525114,153.7518379569193 311.9497716894977,150.0803460965931 309.648401826484,151.77503517858273 307.34703196347033,149.7918327920707 305.04566210045664,150.95896199981357 302.74429223744295,151.74937560313106 300.44292237442926,153.3712610150195 298.14155251141557,153.52249445869606 295.8401826484018,153.00940645422742 293.53881278538813,158.290913276827 291.23744292237444,158.9195104751346 288.93607305936075,160.16427661452184 286.63470319634706,160.0559820469322 284.3333333333333,153.97388912831474 282.0319634703196,154.73747222482334 279.73059360730593,159.87475893748558 277.42922374429224,159.02979127340097 275.12785388127855,159.10511001901392 272.82648401826486,161.15846053043882 270.5251141552511,153.47232632011549 268.2237442922375,152.98712116299626 265.92237442922374,149.48326066324 263.6210045662101,150.31437624446133 261.31963470319636,153.25834624767316 259.0182648401826,154.68785501973787 256.716894977169,153.21322544498668 254.41552511415526,152.47675585784376 252.11415525114157,149.47637311266737 249.81278538812785,149.82104894556656 247.51141552511416,142.63665816871804 245.21004566210047,143.1351436625479 242.90867579908678,144.0203769050455 240.6073059360731,145.0884674030535 238.30593607305937,148.8230898935508 236.00456621004565,150.61198912984997 233.70319634703196,150.35747794700754 231.40182648401824,150.86768786096164 229.10045662100455,155.41562618154688 226.79908675799086,155.82610347960528 224.49771689497717,155.68630135930204 222.19634703196348,155.24334725354433 219.89497716894977,151.45553548593722 217.59360730593608,151.51628270823264 215.29223744292239,149.76441971143424 212.99086757990867,150.1290587419432 210.68949771689498,159.63093393040432 208.38812785388126,159.1769118094012 206.08675799086757,150.15666317349275 203.78538812785388,151.27896265094353 201.4840182648402,143.83646809338504 199.1826484018265,146.004315609164 196.88127853881278,149.56343526346674 194.5799086757991,150.07827931692353 192.2785388127854,150.23791042655017 189.97716894977168,149.86195066584958 187.675799086758,156.31278502576944 185.37442922374427,156.63068781548355 183.07305936073058,155.90162310793085 180.77168949771692,156.07745268284515 178.4703196347032,156.34923898811437 176.1689497716895,158.9030291318192 173.8675799086758,153.5656330429074 171.5662100456621,156.4719074425899 169.26484018264838,158.00346717570287 166.9634703196347,157.2575907066713 164.662100456621,156.03075193141973 162.3607305936073,157.49526751581362 160.05936073059362,163.4210656104799 157.7579908675799,163.76240646910367 155.45662100456622,172.61177198498075 153.15525114155253,173.67646414420014 150.8538812785388,175.14342251608159 148.55251141552512,175.33677222478164 146.2511415525114,177.59678083517903 143.9497716894977,180.85988235077534 141.64840182648402,172.9051221726267 139.34703196347033,175.02660426998003 137.04566210045664,177.35087481732594 134.74429223744292,177.55695098403535 132.44292237442923,178.08041958713912 130.1415525114155,177.8530831335275 127.84018264840182,179.86774376730887 125.53881278538813,180.6039817164455 123.23744292237443,181.56944677378902 120.93607305936074,182.18702577812434 118.63470319634703,175.2554178127629 116.33333333333333,176.02778534280606 114.03196347031964,172.34451279766336 111.73059360730593,173.05185256942792 109.42922374429224,172.1713036191519 107.12785388127854,172.84110738376077 104.82648401826484,175.60188648910082 102.52511415525113,177.05238055706798 100.22374429223744,175.13599572923738 97.92237442922375,176.1540899394878 95.62100456621005,182.14542110450478 93.31963470319634,183.9431420409478 91.01826484018264,184.49427131652743 88.71689497716895,186.07007125198265 86.41552511415526,188.79417895244 84.11415525114155,190.73865733222235 81.81278538812785,188.71816962195302 79.51141552511416,189.75120067543392 77.21004566210046,184.24307643373962 74.90867579908675,186.55929922282488 72.60730593607306,188.9008671289252 70.30593607305936,188.9810687545346 68.00456621004567,190.8476050881207 65.70319634703196,191.54282991353196 63.401826484018265,186.1184047902609 61.10045662100457,185.77172759345052 58.799086757990864,181.71224103608313 56.49771689497717,183.70792041683075 54.19634703196347,190.1880651396535 51.894977168949765,190.3580387884666 49.593607305936075,190.8137921213424 47.29223744292237,191.57669060359785 44.99086757990868,187.86008019762883 42.68949771689498,188.10573011857784 40.38812785388128,192.5465107387371 38.08675799086758,192.90096089397107 35.78538812785388,194.74514682641964 33.48401826484018,196.48827970180577 31.27853881278539,218.81961567240583" fill="rgba(20.39%,39.61%,64.31%,1)"></path><g transform="translate(0 220)"><g fill="none" font-size="10" font-family="sans-serif" text-anchor="middle"><path class="domain" stroke="#000" d="M30.5,6V0.5H870.5V6"></path><g class="tick" transform="translate(30, 0)"><line stroke="#000" y2="6" x1="0.5" x2="0.5"></line><text fill="#000" y="9" x="0.5" dy="0.71em">1990</text></g><g class="tick" transform="translate(101.34246575342466, 0)"><line stroke="#000" y2="6" x1="0.5" x2="0.5"></line><text fill="#000" y="9" x="0.5" dy="0.71em">February</text></g><g class="tick" transform="translate(165.78082191780823, 0)"><line stroke="#000" y2="6" x1="0.5" x2="0.5"></line><text fill="#000" y="9" x="0.5" dy="0.71em">March</text></g><g class="tick" transform="translate(237.12328767123287, 0)"><line stroke="#000" y2="6" x1="0.5" x2="0.5"></line><text fill="#000" y="9" x="0.5" dy="0.71em">April</text></g><g class="tick" transform="translate(306.16438356164383, 0)"><line stroke="#000" y2="6" x1="0.5" x2="0.5"></line><text fill="#000" y="9" x="0.5" dy="0.71em">May</text></g><g class="tick" transform="translate(377.5068493150685, 0)"><line stroke="#000" y2="6" x1="0.5" x2="0.5"></line><text fill="#000" y="9" x="0.5" dy="0.71em">June</text></g><g class="tick" transform="translate(446.5479452054795, 0)"><line stroke="#000" y2="6" x1="0.5" x2="0.5"></line><text fill="#000" y="9" x="0.5" dy="0.71em">July</text></g><g class="tick" transform="translate(517.8904109589041, 0)"><line stroke="#000" y2="6" x1="0.5" x2="0.5"></line><text fill="#000" y="9" x="0.5" dy="0.71em">August</text></g><g class="tick" transform="translate(589.2328767123288, 0)"><line stroke="#000" y2="6" x1="0.5" x2="0.5"></line><text fill="#000" y="9" x="0.5" dy="0.71em">September</text></g><g class="tick" transform="translate(658.2739726027397, 0)"><line stroke="#000" y2="6" x1="0.5" x2="0.5"></line><text fill="#000" y="9" x="0.5" dy="0.71em">October</text></g><g class="tick" transform="translate(729.6164383561644, 0)"><line stroke="#000" y2="6" x1="0.5" x2="0.5"></line><text fill="#000" y="9" x="0.5" dy="0.71em">November</text></g><g class="tick" transform="translate(798.6575342465753, 0)"><line stroke="#000" y2="6" x1="0.5" x2="0.5"></line><text fill="#000" y="9" x="0.5" dy="0.71em">December</text></g></g></g><g transform="translate(30 0)"><g fill="none" font-size="10" font-family="sans-serif" text-anchor="end"><path class="domain" stroke="#000" d="M-6,220.5H0.5V30.5H-6"></path><g class="tick" transform="translate(0, 220)"><line stroke="#000" x2="-6" y1="0.5" y2="0.5"></line><text fill="#000" x="-9" y="0.5" dy="0.32em">0</text></g><g class="tick" transform="translate(0, 198.88888888888889)"><line stroke="#000" x2="-6" y1="0.5" y2="0.5"></line><text fill="#000" x="-9" y="0.5" dy="0.32em">50</text></g><g class="tick" transform="translate(0, 177.77777777777777)"><line stroke="#000" x2="-6" y1="0.5" y2="0.5"></line><text fill="#000" x="-9" y="0.5" dy="0.32em">100</text></g><g class="tick" transform="translate(0, 156.66666666666669)"><line stroke="#000" x2="-6" y1="0.5" y2="0.5"></line><text fill="#000" x="-9" y="0.5" dy="0.32em">150</text></g><g class="tick" transform="translate(0, 135.55555555555554)"><line stroke="#000" x2="-6" y1="0.5" y2="0.5"></line><text fill="#000" x="-9" y="0.5" dy="0.32em">200</text></g><g class="tick" transform="translate(0, 114.44444444444444)"><line stroke="#000" x2="-6" y1="0.5" y2="0.5"></line><text fill="#000" x="-9" y="0.5" dy="0.32em">250</text></g><g class="tick" transform="translate(0, 93.33333333333334)"><line stroke="#000" x2="-6" y1="0.5" y2="0.5"></line><text fill="#000" x="-9" y="0.5" dy="0.32em">300</text></g><g class="tick" transform="translate(0, 72.22222222222223)"><line stroke="#000" x2="-6" y1="0.5" y2="0.5"></line><text fill="#000" x="-9" y="0.5" dy="0.32em">350</text></g><g class="tick" transform="translate(0, 51.111111111111114)"><line stroke="#000" x2="-6" y1="0.5" y2="0.5"></line><text fill="#000" x="-9" y="0.5" dy="0.32em">400</text></g><g class="tick" transform="translate(0, 30)"><line stroke="#000" x2="-6" y1="0.5" y2="0.5"></line><text fill="#000" x="-9" y="0.5" dy="0.32em">450</text></g></g></g></svg>
