<?xml version='1.0' encoding='ascii'?><svg width="900px" height="450px" xmlns="http://www.w3.org/2000/svg">
<g transform="translate(60, 60)" class="series"><g class="column"><rect x="12.682926829268297" y="165" width="57.073170731707314" height="21.273330375" fill="rgba(0, 191, 255, 1)"></rect><rect x="12.682926829268297" y="143.7593025" width="57.073170731707314" height="21.24069750000001" fill="rgba(64, 180, 232, 1)"></rect></g><g class="column"><rect x="76.09756097560975" y="165" width="57.073170731707314" height="22.143540374999986" fill="rgba(0, 191, 255, 1)"></rect><rect x="76.09756097560975" y="136.95870374999998" width="57.073170731707314" height="28.041296250000016" fill="rgba(64, 180, 232, 1)"></rect></g><g class="column"><rect x="139.5121951219512" y="165" width="57.073170731707314" height="28.451816250000007" fill="rgba(0, 191, 255, 1)"></rect><rect x="139.5121951219512" y="126.6253725" width="57.073170731707314" height="38.3746275" fill="rgba(64, 180, 232, 1)"></rect></g><g class="column"><rect x="202.9268292682927" y="165" width="57.073170731707314" height="34.46891249999999" fill="rgba(0, 191, 255, 1)"></rect><rect x="202.9268292682927" y="124.42683" width="57.073170731707314" height="40.573170000000005" fill="rgba(64, 180, 232, 1)"></rect></g><g class="column"><rect x="266.3414634146342" y="165" width="57.073170731707314" height="36.394833750000004" fill="rgba(0, 191, 255, 1)"></rect><rect x="266.3414634146342" y="128.71109625000003" width="57.073170731707314" height="36.288903749999974" fill="rgba(64, 180, 232, 1)"></rect></g><g class="column"><rect x="329.7560975609756" y="165" width="57.073170731707314" height="37.85883749999999" fill="rgba(0, 191, 255, 1)"></rect><rect x="329.7560975609756" y="104.779125" width="57.073170731707314" height="60.22087500000001" fill="rgba(64, 180, 232, 1)"></rect></g><g class="column"><rect x="393.1707317073171" y="165" width="57.073170731707314" height="37.9287975" fill="rgba(0, 191, 255, 1)"></rect><rect x="393.1707317073171" y="117.0213" width="57.073170731707314" height="47.9787" fill="rgba(64, 180, 232, 1)"></rect></g><g class="column"><rect x="456.5853658536585" y="165" width="57.073170731707314" height="41.047668750000014" fill="rgba(0, 191, 255, 1)"></rect><rect x="456.5853658536585" y="121.22715000000002" width="57.073170731707314" height="43.77284999999998" fill="rgba(64, 180, 232, 1)"></rect></g><g class="column"><rect x="520" y="165" width="57.073170731707314" height="52.64716874999999" fill="rgba(0, 191, 255, 1)"></rect><rect x="520" y="69.84668625" width="57.073170731707314" height="95.15331375" fill="rgba(64, 180, 232, 1)"></rect></g><g class="column"><rect x="583.4146341463415" y="165" width="57.073170731707314" height="71.61453749999998" fill="rgba(0, 191, 255, 1)"></rect><rect x="583.4146341463415" y="84.08276250000003" width="57.073170731707314" height="80.91723749999997" fill="rgba(64, 180, 232, 1)"></rect></g><g class="column"><rect x="646.8292682926829" y="165" width="57.073170731707314" height="82.1580375" fill="rgba(0, 191, 255, 1)"></rect><rect x="646.8292682926829" y="67.36124999999998" width="57.073170731707314" height="97.63875000000002" fill="rgba(64, 180, 232, 1)"></rect></g><g class="column"><rect x="710.2439024390244" y="165" width="57.073170731707314" height="84.7312125" fill="rgba(0, 191, 255, 1)"></rect><rect x="710.2439024390244" y="64.82231250000001" width="57.073170731707314" height="100.17768749999999" fill="rgba(64, 180, 232, 1)"></rect></g></g>
<g transform="translate(59, 60)"><g fill="none" font-size="10" font-family="sans-serif" text-anchor="end"><path class="domain" stroke="#000" d="M-6,330.5H0.5V0.5H-6"></path><g class="tick" transform="translate(0, 330)"><line stroke="#000" x2="-6" y1="0.5" y2="0.5"></line><text fill="#000" x="-9" y="0.5" dy="0.32em">-40</text></g><g class="tick" transform="translate(0, 288.75)"><line stroke="#000" x2="-6" y1="0.5" y2="0.5"></line><text fill="#000" x="-9" y="0.5" dy="0.32em">-30</text></g><g class="tick" transform="translate(0, 247.5)"><line stroke="#000" x2="-6" y1="0.5" y2="0.5"></line><text fill="#000" x="-9" y="0.5" dy="0.32em">-20</text></g><g class="tick" transform="translate(0, 206.25)"><line stroke="#000" x2="-6" y1="0.5" y2="0.5"></line><text fill="#000" x="-9" y="0.5" dy="0.32em">-10</text></g><g class="tick" transform="translate(0, 165)"><line stroke="#000" x2="-6" y1="0.5" y2="0.5"></line><text fill="#000" x="-9" y="0.5" dy="0.32em">0</text></g><g class="tick" transform="translate(0, 123.75)"><line stroke="#000" x2="-6" y1="0.5" y2="0.5"></line><text fill="#000" x="-9" y="0.5" dy="0.32em">10</text></g><g class="tick" transform="translate(0, 82.5)"><line stroke="#000" x2="-6" y1="0.5" y2="0.5"></line><text fill="#000" x="-9" y="0.5" dy="0.32em">20</text></g><g class="tick" transform="translate(0, 41.25)"><line stroke="#000" x2="-6" y1="0.5" y2="0.5"></line><text fill="#000" x="-9" y="0.5" dy="0.32em">30</text></g><g class="tick" transform="translate(0, 0)"><line stroke="#000" x2="-6" y1="0.5" y2="0.5"></line><text fill="#000" x="-9" y="0.5" dy="0.32em">40</text></g></g><text font-family="sans-serif" font-size="10" x="5" y="5">Occurences</text></g>
</svg>
