<?xml version='1.0' encoding='ascii'?><svg width="900px" height="450px" xmlns="http://www.w3.org/2000/svg">
<g transform="translate(60, 60)" class="series"><g class="column"><rect y="3.419689119170954" x="388.974495" height="15.388601036269433" width="1.0255050000000097" fill="rgba(53, 95, 141, 1)"></rect><rect y="3.419689119170954" x="390" height="15.388601036269433" width="1.2809550000000058" fill="rgba(68, 191, 112, 1)"></rect></g><g class="column"><rect y="20.51813471502588" x="388.40373000000005" height="15.388601036269433" width="1.5962699999999472" fill="rgba(53, 95, 141, 1)"></rect><rect y="20.51813471502588" x="390" height="15.388601036269433" width="2.049644999999998" fill="rgba(68, 191, 112, 1)"></rect></g><g class="column"><rect y="37.616580310880806" x="385.42744500000003" height="15.388601036269433" width="4.572554999999966" fill="rgba(53, 95, 141, 1)"></rect><rect y="37.616580310880806" x="390" height="15.388601036269433" width="4.475054999999998" fill="rgba(68, 191, 112, 1)"></rect></g><g class="column"><rect y="54.71502590673573" x="382.03737" height="15.388601036269433" width="7.96262999999999" fill="rgba(53, 95, 141, 1)"></rect><rect y="54.71502590673573" x="390" height="15.388601036269433" width="7.844654999999989" fill="rgba(68, 191, 112, 1)"></rect></g><g class="column"><rect y="71.81347150259066" x="375.632985" height="15.388601036269433" width="14.36701499999998" fill="rgba(53, 95, 141, 1)"></rect><rect y="71.81347150259066" x="390" height="15.388601036269433" width="13.99359000000004" fill="rgba(68, 191, 112, 1)"></rect></g><g class="column"><rect y="88.91191709844558" x="369.168735" height="15.388601036269433" width="20.831264999999973" fill="rgba(53, 95, 141, 1)"></rect><rect y="88.91191709844558" x="390" height="15.388601036269433" width="20.57913000000002" fill="rgba(68, 191, 112, 1)"></rect></g><g class="column"><rect y="106.01036269430051" x="355.87968" height="15.388601036269433" width="34.12031999999999" fill="rgba(53, 95, 141, 1)"></rect><rect y="106.01036269430051" x="390" height="15.388601036269433" width="31.63602000000003" fill="rgba(68, 191, 112, 1)"></rect></g><g class="column"><rect y="123.10880829015544" x="352.1544" height="15.388601036269433" width="37.84559999999999" fill="rgba(53, 95, 141, 1)"></rect><rect y="123.10880829015544" x="390" height="15.388601036269433" width="36.50556" fill="rgba(68, 191, 112, 1)"></rect></g><g class="column"><rect y="140.20725388601036" x="327.33811499999996" height="15.388601036269433" width="62.66188500000004" fill="rgba(53, 95, 141, 1)"></rect><rect y="140.20725388601036" x="390" height="15.388601036269433" width="55.88310000000001" fill="rgba(68, 191, 112, 1)"></rect></g><g class="column"><rect y="157.30569948186528" x="315.078855" height="15.388601036269433" width="74.92114500000002" fill="rgba(53, 95, 141, 1)"></rect><rect y="157.30569948186528" x="390" height="15.388601036269433" width="66.54453000000001" fill="rgba(68, 191, 112, 1)"></rect></g><g class="column"><rect y="174.40414507772022" x="297.197355" height="15.388601036269433" width="92.80264499999998" fill="rgba(53, 95, 141, 1)"></rect><rect y="174.40414507772022" x="390" height="15.388601036269433" width="83.49607500000002" fill="rgba(68, 191, 112, 1)"></rect></g><g class="column"><rect y="191.50259067357516" x="275.245035" height="15.388601036269433" width="114.75496500000003" fill="rgba(53, 95, 141, 1)"></rect><rect y="191.50259067357516" x="390" height="15.388601036269433" width="98.47734000000003" fill="rgba(68, 191, 112, 1)"></rect></g><g class="column"><rect y="208.60103626943007" x="247.52558999999997" height="15.388601036269433" width="142.47441000000003" fill="rgba(53, 95, 141, 1)"></rect><rect y="208.60103626943007" x="390" height="15.388601036269433" width="124.72901999999999" fill="rgba(68, 191, 112, 1)"></rect></g><g class="column"><rect y="225.69948186528498" x="221.80333499999995" height="15.388601036269433" width="168.19666500000005" fill="rgba(53, 95, 141, 1)"></rect><rect y="225.69948186528498" x="390" height="15.388601036269433" width="155.89899000000003" fill="rgba(68, 191, 112, 1)"></rect></g><g class="column"><rect y="242.79792746113992" x="191.63020499999993" height="15.388601036269433" width="198.36979500000007" fill="rgba(53, 95, 141, 1)"></rect><rect y="242.79792746113992" x="390" height="15.388601036269433" width="195.74899500000004" fill="rgba(68, 191, 112, 1)"></rect></g><g class="column"><rect y="259.8963730569949" x="179.959065" height="15.388601036269433" width="210.040935" fill="rgba(53, 95, 141, 1)"></rect><rect y="259.8963730569949" x="390" height="15.388601036269433" width="216.57070499999998" fill="rgba(68, 191, 112, 1)"></rect></g><g class="column"><rect y="276.99481865284974" x="144.28069500000004" height="15.388601036269433" width="245.71930499999996" fill="rgba(53, 95, 141, 1)"></rect><rect y="276.99481865284974" x="390" height="15.388601036269433" width="237.14223000000004" fill="rgba(68, 191, 112, 1)"></rect></g><g class="column"><rect y="294.0932642487047" x="114.84193500000003" height="15.388601036269433" width="275.15806499999997" fill="rgba(53, 95, 141, 1)"></rect><rect y="294.0932642487047" x="390" height="15.388601036269433" width="265.13526" fill="rgba(68, 191, 112, 1)"></rect></g><g class="column"><rect y="311.19170984455957" x="100.66114500000003" height="15.388601036269433" width="289.33885499999997" fill="rgba(53, 95, 141, 1)"></rect><rect y="311.19170984455957" x="390" height="15.388601036269433" width="282.82331999999997" fill="rgba(68, 191, 112, 1)"></rect></g></g>
<text transform="translate(352.5, 120)" font-family="sans-serif" font-size="20" text-anchor="middle">Men</text>
<text transform="translate(547.5, 120)" font-family="sans-serif" font-size="20" text-anchor="middle">Women</text>
<text transform="translate(450, 420)" font-family="sans-serif" font-size="18" text-anchor="middle" dy="1em">People</text>
<g transform="translate(59, 390)"><g fill="none" font-size="10" font-family="sans-serif" text-anchor="middle"><path class="domain" stroke="#000" d="M780.5,6V0.5H0.5V6"></path><g class="tick" transform="translate(780, 0)"><line stroke="#000" y2="6" x1="0.5" x2="0.5"></line><text fill="#000" y="9" x="0.5" dy="0.71em">2000000</text></g><g class="tick" transform="translate(682.5, 0)"><line stroke="#000" y2="6" x1="0.5" x2="0.5"></line><text fill="#000" y="9" x="0.5" dy="0.71em">1500000</text></g><g class="tick" transform="translate(585, 0)"><line stroke="#000" y2="6" x1="0.5" x2="0.5"></line><text fill="#000" y="9" x="0.5" dy="0.71em">1000000</text></g><g class="tick" transform="translate(487.5, 0)"><line stroke="#000" y2="6" x1="0.5" x2="0.5"></line><text fill="#000" y="9" x="0.5" dy="0.71em">500000</text></g><g class="tick" transform="translate(390, 0)"><line stroke="#000" y2="6" x1="0.5" x2="0.5"></line><text fill="#000" y="9" x="0.5" dy="0.71em">0</text></g><g class="tick" transform="translate(292.5, 0)"><line stroke="#000" y2="6" x1="0.5" x2="0.5"></line><text fill="#000" y="9" x="0.5" dy="0.71em">500000</text></g><g class="tick" transform="translate(195, 0)"><line stroke="#000" y2="6" x1="0.5" x2="0.5"></line><text fill="#000" y="9" x="0.5" dy="0.71em">1000000</text></g><g class="tick" transform="translate(97.5, 0)"><line stroke="#000" y2="6" x1="0.5" x2="0.5"></line><text fill="#000" y="9" x="0.5" dy="0.71em">1500000</text></g><g class="tick" transform="translate(0, 0)"><line stroke="#000" y2="6" x1="0.5" x2="0.5"></line><text fill="#000" y="9" x="0.5" dy="0.71em">2000000</text></g></g></g>
</svg>
