<?xml version='1.0' encoding='ascii'?><svg width="900px" height="450px" xmlns="http://www.w3.org/2000/svg">
<g transform="translate(60, 60)" class="series"><path fill="rgb(33, 145, 140)" d="M0,330C7.647058823529412,330,15.294117647058822,330,22.941176470588236,330C30.58823529411765,330,38.23529411764706,330,45.88235294117647,330C53.529411764705884,330,61.1764705882353,330,68.82352941176471,330C76.47058823529412,330,84.11764705882354,330,91.76470588235294,330C99.41176470588235,330,107.05882352941177,330,114.70588235294117,330C122.3529411764706,330,130,330,137.64705882352942,330C145.29411764705884,330,152.94117647058823,330,160.58823529411765,330C168.23529411764707,330,175.88235294117646,330,183.52941176470588,330C191.1764705882353,330,198.8235294117647,330,206.47058823529412,330C214.11764705882354,330,221.76470588235293,330,229.41176470588235,330C237.05882352941177,330,244.7058823529412,330,252.3529411764706,330C260,330,267.64705882352945,330,275.29411764705884,330C282.94117647058823,330,290.5882352941176,330,298.235294117647,330C305.88235294117646,330,313.52941176470586,330,321.1764705882353,330C328.8235294117647,330,336.47058823529414,330,344.11764705882354,330C351.7647058823529,330,359.4117647058824,330,367.05882352941177,330C374.70588235294116,330,382.3529411764706,330,390,330C397.6470588235294,330,405.29411764705884,330,412.94117647058823,330C420.5882352941176,330,428.2352941176471,330,435.88235294117646,330C443.52941176470586,330,451.1764705882353,330,458.8235294117647,330C466.47058823529414,330,474.11764705882354,330,481.764705882353,330C489.4117647058824,330,497.0588235294118,330,504.7058823529412,330C512.3529411764706,330,520,330,527.6470588235294,330C535.2941176470588,330,542.9411764705883,330,550.5882352941177,330C558.2352941176471,330,565.8823529411766,330,573.529411764706,330C581.1764705882354,330,588.8235294117646,330,596.470588235294,330C604.1176470588234,330,611.7647058823529,330,619.4117647058823,330C627.0588235294117,330,634.7058823529412,330,642.3529411764706,330C650,330,657.6470588235294,330,665.2941176470588,330C672.9411764705882,330,680.5882352941177,330,688.2352941176471,330C695.8823529411765,330,703.5294117647059,330,711.1764705882352,330C718.8235294117646,330,726.4705882352941,330,734.1176470588235,330C741.7647058823529,330,749.4117647058823,330,757.0588235294117,330C764.7058823529411,330,772.3529411764706,330,780,330L780,239.27007299270073C772.3529411764706,249.12629874283735,764.7058823529411,246.85852503781516,757.0588235294117,251.39407244785951C749.4117647058823,255.92961985790384,741.7647058823529,266.4833574529667,734.1176470588235,266.4833574529667C726.4705882352941,266.4833574529667,718.8235294117646,239.3006134969325,711.1764705882352,239.3006134969325C703.5294117647059,239.3006134969325,695.8823529411765,240.1564198105884,688.2352941176471,240.19911504424778C680.5882352941177,240.24181027790715,672.9411764705882,240.22046266107745,665.2941176470588,240.26315789473682C657.6470588235294,240.3058531283962,650,260.22069169436577,642.3529411764706,267.79026217228466C634.7058823529412,275.3598326502036,627.0588235294117,285.68058076225043,619.4117647058823,285.68058076225043C611.7647058823529,285.68058076225043,604.1176470588234,281.27371511316034,596.470588235294,277.5149105367793C588.8235294117646,273.7561059603984,581.1764705882354,263.12775330396477,573.529411764706,263.12775330396477C565.8823529411766,263.12775330396477,558.2352941176471,273.5192307692308,550.5882352941177,273.5192307692308C542.9411764705883,273.5192307692308,535.2941176470588,200.79717457114026,527.6470588235294,200.79717457114026C520,200.79717457114026,512.3529411764706,220.9593023255814,504.7058823529412,220.9593023255814C497.0588235294118,220.9593023255814,489.4117647058824,211.53181461115474,481.764705882353,211.53181461115474C474.11764705882354,211.53181461115474,466.47058823529414,212.43243243243245,458.8235294117647,212.43243243243245C451.1764705882353,212.43243243243245,443.52941176470586,206.1238532110092,435.88235294117646,206.1238532110092C428.2352941176471,206.1238532110092,420.5882352941176,221.8595578673602,412.94117647058823,221.8595578673602C405.29411764705884,221.8595578673602,397.6470588235294,211.07142857142858,390,211.07142857142858C382.3529411764706,211.07142857142858,374.70588235294116,241.78591871780196,367.05882352941177,241.78591871780196C359.4117647058824,241.78591871780196,351.7647058823529,239.80477223427334,344.11764705882354,239.80477223427334C336.47058823529414,239.80477223427334,328.8235294117647,281.8920595533499,321.1764705882353,281.8920595533499C313.52941176470586,281.8920595533499,305.88235294117646,281.78962746530317,298.235294117647,281.78962746530317C290.5882352941176,281.78962746530317,282.94117647058823,292.07174231332357,275.29411764705884,292.07174231332357C267.64705882352945,292.07174231332357,260,271.5668789808917,252.3529411764706,271.5668789808917C244.7058823529412,271.5668789808917,237.05882352941177,296.25649913344887,229.41176470588235,296.25649913344887C221.76470588235293,296.25649913344887,214.11764705882354,239.0493736182756,206.47058823529412,239.0493736182756C198.8235294117647,239.0493736182756,191.1764705882353,251.22762148337597,183.52941176470588,251.22762148337597C175.88235294117646,251.22762148337597,168.23529411764707,250.29003858839545,160.58823529411765,248.41487279843443C152.94117647058823,246.5397070084734,145.29411764705884,221.02803738317758,137.64705882352942,221.02803738317758C130,221.02803738317758,122.3529411764706,222.69557021677662,114.70588235294117,222.69557021677662C107.05882352941177,222.69557021677662,99.41176470588235,219.13302070033302,91.76470588235294,216.62735849056605C84.11764705882354,214.12169628079909,76.47058823529412,207.6615969581749,68.82352941176471,207.6615969581749C61.1764705882353,207.6615969581749,53.529411764705884,220.25093691650991,45.88235294117647,224.08952959028832C38.23529411764706,227.92812226406673,30.58823529411765,227.8189321767129,22.941176470588236,230.6931530008453C15.294117647058822,233.56737382497772,7.647058823529412,232.13026341291152,0,241.3348545350827Z"></path><path fill="rgb(34, 168, 132)" d="M0,241.3348545350827C7.647058823529412,232.13026341291152,15.294117647058822,233.56737382497772,22.941176470588236,230.6931530008453C30.58823529411765,227.8189321767129,38.23529411764706,227.92812226406673,45.88235294117647,224.08952959028832C53.529411764705884,220.25093691650991,61.1764705882353,207.6615969581749,68.82352941176471,207.6615969581749C76.47058823529412,207.6615969581749,84.11764705882354,214.12169628079909,91.76470588235294,216.62735849056605C99.41176470588235,219.13302070033302,107.05882352941177,222.69557021677662,114.70588235294117,222.69557021677662C122.3529411764706,222.69557021677662,130,221.02803738317758,137.64705882352942,221.02803738317758C145.29411764705884,221.02803738317758,152.94117647058823,246.5397070084734,160.58823529411765,248.41487279843443C168.23529411764707,250.29003858839545,175.88235294117646,251.22762148337597,183.52941176470588,251.22762148337597C191.1764705882353,251.22762148337597,198.8235294117647,239.0493736182756,206.47058823529412,239.0493736182756C214.11764705882354,239.0493736182756,221.76470588235293,296.25649913344887,229.41176470588235,296.25649913344887C237.05882352941177,296.25649913344887,244.7058823529412,271.5668789808917,252.3529411764706,271.5668789808917C260,271.5668789808917,267.64705882352945,292.07174231332357,275.29411764705884,292.07174231332357C282.94117647058823,292.07174231332357,290.5882352941176,281.78962746530317,298.235294117647,281.78962746530317C305.88235294117646,281.78962746530317,313.52941176470586,281.8920595533499,321.1764705882353,281.8920595533499C328.8235294117647,281.8920595533499,336.47058823529414,239.80477223427334,344.11764705882354,239.80477223427334C351.7647058823529,239.80477223427334,359.4117647058824,241.78591871780196,367.05882352941177,241.78591871780196C374.70588235294116,241.78591871780196,382.3529411764706,211.07142857142858,390,211.07142857142858C397.6470588235294,211.07142857142858,405.29411764705884,221.8595578673602,412.94117647058823,221.8595578673602C420.5882352941176,221.8595578673602,428.2352941176471,206.1238532110092,435.88235294117646,206.1238532110092C443.52941176470586,206.1238532110092,451.1764705882353,212.43243243243245,458.8235294117647,212.43243243243245C466.47058823529414,212.43243243243245,474.11764705882354,211.53181461115474,481.764705882353,211.53181461115474C489.4117647058824,211.53181461115474,497.0588235294118,220.9593023255814,504.7058823529412,220.9593023255814C512.3529411764706,220.9593023255814,520,200.79717457114026,527.6470588235294,200.79717457114026C535.2941176470588,200.79717457114026,542.9411764705883,273.5192307692308,550.5882352941177,273.5192307692308C558.2352941176471,273.5192307692308,565.8823529411766,263.12775330396477,573.529411764706,263.12775330396477C581.1764705882354,263.12775330396477,588.8235294117646,273.75610596039843,596.470588235294,277.5149105367793C604.1176470588234,281.2737151131603,611.7647058823529,285.68058076225043,619.4117647058823,285.68058076225043C627.0588235294117,285.68058076225043,634.7058823529412,275.35983265020366,642.3529411764706,267.79026217228466C650,260.2206916943657,657.6470588235294,240.3058531283962,665.2941176470588,240.26315789473682C672.9411764705882,240.22046266107745,680.5882352941177,240.24181027790715,688.2352941176471,240.19911504424778C695.8823529411765,240.1564198105884,703.5294117647059,239.3006134969325,711.1764705882352,239.3006134969325C718.8235294117646,239.3006134969325,726.4705882352941,266.4833574529667,734.1176470588235,266.4833574529667C741.7647058823529,266.4833574529667,749.4117647058823,255.92961985790382,757.0588235294117,251.39407244785951C764.7058823529411,246.85852503781518,772.3529411764706,249.12629874283735,780,239.27007299270073L780,205.14598540145985C772.3529411764706,223.75555174603963,764.7058823529411,221.1115425700156,757.0588235294117,226.39956092206367C749.4117647058823,231.68757927411173,741.7647058823529,236.87409551374822,734.1176470588235,236.87409551374822C726.4705882352941,236.87409551374822,718.8235294117646,205.47586731092892,711.1764705882352,199.21472392638034C703.5294117647059,192.9535805418318,695.8823529411765,192.14826985483143,688.2352941176471,189.8230088495575C680.5882352941177,187.4977478442836,672.9411764705882,188.30305853128397,665.2941176470588,185.26315789473682C657.6470588235294,182.2232572581897,650,162.32209737827714,642.3529411764706,162.32209737827714C634.7058823529412,162.32209737827714,627.0588235294117,163.31455009731482,619.4117647058823,165.2994555353902C611.7647058823529,167.28436097346557,604.1176470588234,186.3220675944334,596.470588235294,186.3220675944334C588.8235294117646,186.3220675944334,581.1764705882354,171.84603645494022,573.529411764706,164.27312775330395C565.8823529411766,156.7002190516676,558.2352941176471,140.8846153846154,550.5882352941177,140.8846153846154C542.9411764705883,140.8846153846154,535.2941176470588,176.48839556004037,527.6470588235294,176.48839556004037C520,176.48839556004037,512.3529411764706,145.36339873460116,504.7058823529412,137.81976744186048C497.0588235294118,130.2761361491198,489.4117647058824,126.50432050274944,481.764705882353,126.50432050274944C474.11764705882354,126.50432050274944,466.47058823529414,146.75675675675674,458.8235294117647,146.75675675675674C451.1764705882353,146.75675675675674,443.52941176470586,117.82110091743118,435.88235294117646,117.82110091743118C428.2352941176471,117.82110091743118,420.5882352941176,124.34783844939415,412.94117647058823,134.96098829648895C405.29411764705884,145.57413814358375,397.6470588235294,181.50000000000003,390,181.50000000000003C382.3529411764706,181.50000000000003,374.70588235294116,170.19461934745277,367.05882352941177,170.19461934745277C359.4117647058824,170.19461934745277,351.7647058823529,187.5057948127904,344.11764705882354,201.68655097613885C336.47058823529414,215.86730713948728,328.8235294117647,255.27915632754343,321.1764705882353,255.27915632754343C313.52941176470586,255.27915632754343,305.88235294117646,252.54549063180278,298.235294117647,247.07815924032138C290.5882352941176,241.61082784884002,282.94117647058823,210.65885797950222,275.29411764705884,210.65885797950222C267.64705882352945,210.65885797950222,260,224.484076433121,252.3529411764706,224.484076433121C244.7058823529412,224.484076433121,237.05882352941177,217.23837331243308,229.41176470588235,202.7469670710572C221.76470588235293,188.25556082968134,214.11764705882354,119.64627855563742,206.47058823529412,119.64627855563742C198.8235294117647,119.64627855563742,191.1764705882353,169.36061381074168,183.52941176470588,169.36061381074168C175.88235294117646,169.36061381074168,168.23529411764707,169.01927417780692,160.58823529411765,168.3365949119374C152.94117647058823,167.65391564606787,145.29411764705884,74.53271028037383,137.64705882352942,74.53271028037383C130,74.53271028037383,122.3529411764706,91.75306314797362,114.70588235294117,91.75306314797362C107.05882352941177,91.75306314797362,99.41176470588235,72.3820754716981,91.76470588235294,72.3820754716981C84.11764705882354,72.3820754716981,76.47058823529412,79.36311787072242,68.82352941176471,79.36311787072242C61.1764705882353,79.36311787072242,53.529411764705884,73.86191198786042,45.88235294117647,73.86191198786042C38.23529411764706,73.86191198786042,30.58823529411765,93.16990701606085,22.941176470588236,93.16990701606085C15.294117647058822,93.16990701606085,7.647058823529412,93.16990701606085,0,90.54763262977752Z"></path><path fill="rgb(53, 95, 141)" d="M0,90.54763262977752C7.647058823529412,93.16990701606085,15.294117647058822,93.16990701606085,22.941176470588236,93.16990701606085C30.58823529411765,93.16990701606085,38.23529411764706,73.86191198786042,45.88235294117647,73.86191198786042C53.529411764705884,73.86191198786042,61.1764705882353,79.36311787072242,68.82352941176471,79.36311787072242C76.47058823529412,79.36311787072242,84.11764705882354,72.3820754716981,91.76470588235294,72.3820754716981C99.41176470588235,72.3820754716981,107.05882352941177,91.75306314797362,114.70588235294117,91.75306314797362C122.3529411764706,91.75306314797362,130,74.53271028037383,137.64705882352942,74.53271028037383C145.29411764705884,74.53271028037383,152.94117647058823,167.65391564606787,160.58823529411765,168.3365949119374C168.23529411764707,169.01927417780692,175.88235294117646,169.36061381074168,183.52941176470588,169.36061381074168C191.1764705882353,169.36061381074168,198.8235294117647,119.64627855563742,206.47058823529412,119.64627855563742C214.11764705882354,119.64627855563742,221.76470588235293,188.25556082968137,229.41176470588235,202.7469670710572C237.05882352941177,217.23837331243308,244.7058823529412,224.484076433121,252.3529411764706,224.484076433121C260,224.484076433121,267.64705882352945,210.65885797950222,275.29411764705884,210.65885797950222C282.94117647058823,210.65885797950222,290.5882352941176,241.61082784884005,298.235294117647,247.07815924032138C305.88235294117646,252.54549063180275,313.52941176470586,255.27915632754343,321.1764705882353,255.27915632754343C328.8235294117647,255.27915632754343,336.47058823529414,215.86730713948728,344.11764705882354,201.68655097613885C351.7647058823529,187.5057948127904,359.4117647058824,170.19461934745277,367.05882352941177,170.19461934745277C374.70588235294116,170.19461934745277,382.3529411764706,181.50000000000003,390,181.50000000000003C397.6470588235294,181.50000000000003,405.29411764705884,145.57413814358375,412.94117647058823,134.96098829648895C420.5882352941176,124.34783844939415,428.2352941176471,117.82110091743118,435.88235294117646,117.82110091743118C443.52941176470586,117.82110091743118,451.1764705882353,146.75675675675674,458.8235294117647,146.75675675675674C466.47058823529414,146.75675675675674,474.11764705882354,126.50432050274944,481.764705882353,126.50432050274944C489.4117647058824,126.50432050274944,497.0588235294118,130.27613614911976,504.7058823529412,137.81976744186048C512.3529411764706,145.36339873460116,520,176.48839556004037,527.6470588235294,176.48839556004037C535.2941176470588,176.48839556004037,542.9411764705883,140.8846153846154,550.5882352941177,140.8846153846154C558.2352941176471,140.8846153846154,565.8823529411766,156.70021905166755,573.529411764706,164.27312775330395C581.1764705882354,171.84603645494028,588.8235294117646,186.3220675944334,596.470588235294,186.3220675944334C604.1176470588234,186.3220675944334,611.7647058823529,167.28436097346557,619.4117647058823,165.2994555353902C627.0588235294117,163.31455009731482,634.7058823529412,162.32209737827714,642.3529411764706,162.32209737827714C650,162.32209737827714,657.6470588235294,182.2232572581897,665.2941176470588,185.26315789473682C672.9411764705882,188.30305853128394,680.5882352941177,187.49774784428357,688.2352941176471,189.8230088495575C695.8823529411765,192.14826985483143,703.5294117647059,192.95358054183183,711.1764705882352,199.21472392638034C718.8235294117646,205.4758673109289,726.4705882352941,236.87409551374822,734.1176470588235,236.87409551374822C741.7647058823529,236.87409551374822,749.4117647058823,231.6875792741117,757.0588235294117,226.39956092206367C764.7058823529411,221.11154257001562,772.3529411764706,223.75555174603966,780,205.14598540145985L780,116.82481751824815C772.3529411764706,111.20746432491765,764.7058823529411,111.20746432491765,757.0588235294117,111.20746432491765C749.4117647058823,111.20746432491765,741.7647058823529,144.22575976845155,734.1176470588235,144.22575976845155C726.4705882352941,144.22575976845155,718.8235294117646,135.0496726131993,711.1764705882352,130.7852760736196C703.5294117647059,126.52087953403992,695.8823529411765,124.19423648476382,688.2352941176471,118.63938053097345C680.5882352941177,113.08452457718306,672.9411764705882,106.10577493375482,665.2941176470588,97.45614035087718C657.6470588235294,88.80650576799958,650,66.74157303370788,642.3529411764706,66.74157303370788C634.7058823529412,66.74157303370788,627.0588235294117,72.62767448004725,619.4117647058823,79.65517241379308C611.7647058823529,86.68267034753892,604.1176470588234,108.90656063618289,596.470588235294,108.90656063618289C588.8235294117646,108.90656063618289,581.1764705882354,68.81057268722464,573.529411764706,68.81057268722464C565.8823529411766,68.81057268722464,558.2352941176471,74.59910486596696,550.5882352941177,82.5C542.9411764705883,90.40089513403304,535.2941176470588,116.21594349142282,527.6470588235294,116.21594349142282C520,116.21594349142282,512.3529411764706,103.22870043905323,504.7058823529412,100.40697674418607C497.0588235294118,97.58525304931891,489.4117647058824,96.17439120188533,481.764705882353,96.17439120188533C474.11764705882354,96.17439120188533,466.47058823529414,105.67567567567565,458.8235294117647,105.67567567567565C451.1764705882353,105.67567567567565,443.52941176470586,82.75229357798165,435.88235294117646,82.75229357798165C428.2352941176471,82.75229357798165,420.5882352941176,90.52793040839293,412.94117647058823,99.12873862158648C405.29411764705884,107.72954683478002,397.6470588235294,134.3571428571429,390,134.3571428571429C382.3529411764706,134.3571428571429,374.70588235294116,119.570692615913,367.05882352941177,119.570692615913C359.4117647058824,119.570692615913,351.7647058823529,145.2669485244095,344.11764705882354,153.7255965292842C336.47058823529414,162.1842445341589,328.8235294117647,163.80326504357743,321.1764705882353,170.32258064516128C313.52941176470586,176.84189624674516,305.88235294117646,192.84149013878744,298.235294117647,192.84149013878744C290.5882352941176,192.84149013878744,282.94117647058823,174.7831594549342,275.29411764705884,158.47730600292826C267.64705882352945,142.17145255092228,260,95.00636942675158,252.3529411764706,95.00636942675158C244.7058823529412,95.00636942675158,237.05882352941177,128.96880415944543,229.41176470588235,128.96880415944543C221.76470588235293,128.96880415944543,214.11764705882354,57.391304347826065,206.47058823529412,57.391304347826065C198.8235294117647,57.391304347826065,191.1764705882353,115.34526854219948,183.52941176470588,115.34526854219948C175.88235294117646,115.34526854219948,168.23529411764707,114.496323842223,160.58823529411765,112.79843444227006C152.94117647058823,111.10054504231712,145.29411764705884,0,137.64705882352942,0C130,0,122.3529411764706,0,114.70588235294117,0C107.05882352941177,0,99.41176470588235,0,91.76470588235294,0C84.11764705882354,0,76.47058823529412,0,68.82352941176471,0C61.1764705882353,0,53.529411764705884,5.684341886080802e-14,45.88235294117647,5.684341886080802e-14C38.23529411764706,5.684341886080802e-14,30.58823529411765,0,22.941176470588236,0C15.294117647058822,0,7.647058823529412,0,0,0Z"></path><path fill="rgb(65, 68, 135)" d="M0,0C7.647058823529412,0,15.294117647058822,0,22.941176470588236,0C30.58823529411765,0,38.23529411764706,5.684341886080802e-14,45.88235294117647,5.684341886080802e-14C53.529411764705884,5.684341886080802e-14,61.1764705882353,0,68.82352941176471,0C76.47058823529412,0,84.11764705882354,0,91.76470588235294,0C99.41176470588235,0,107.05882352941177,0,114.70588235294117,0C122.3529411764706,0,130,0,137.64705882352942,0C145.29411764705884,0,152.94117647058823,111.10054504231712,160.58823529411765,112.79843444227006C168.23529411764707,114.496323842223,175.88235294117646,115.34526854219948,183.52941176470588,115.34526854219948C191.1764705882353,115.34526854219948,198.8235294117647,57.391304347826065,206.47058823529412,57.391304347826065C214.11764705882354,57.391304347826065,221.76470588235293,128.96880415944543,229.41176470588235,128.96880415944543C237.05882352941177,128.96880415944543,244.7058823529412,95.00636942675158,252.3529411764706,95.00636942675158C260,95.00636942675158,267.64705882352945,142.17145255092225,275.29411764705884,158.47730600292826C282.94117647058823,174.78315945493424,290.5882352941176,192.84149013878744,298.235294117647,192.84149013878744C305.88235294117646,192.84149013878744,313.52941176470586,176.84189624674516,321.1764705882353,170.32258064516128C328.8235294117647,163.8032650435774,336.47058823529414,162.1842445341589,344.11764705882354,153.7255965292842C351.7647058823529,145.2669485244095,359.4117647058824,119.570692615913,367.05882352941177,119.570692615913C374.70588235294116,119.570692615913,382.3529411764706,134.3571428571429,390,134.3571428571429C397.6470588235294,134.3571428571429,405.29411764705884,107.72954683478002,412.94117647058823,99.12873862158648C420.5882352941176,90.52793040839293,428.2352941176471,82.75229357798165,435.88235294117646,82.75229357798165C443.52941176470586,82.75229357798165,451.1764705882353,105.67567567567565,458.8235294117647,105.67567567567565C466.47058823529414,105.67567567567565,474.11764705882354,96.17439120188533,481.764705882353,96.17439120188533C489.4117647058824,96.17439120188533,497.0588235294118,97.58525304931891,504.7058823529412,100.40697674418607C512.3529411764706,103.22870043905323,520,116.21594349142282,527.6470588235294,116.21594349142282C535.2941176470588,116.21594349142282,542.9411764705883,90.40089513403304,550.5882352941177,82.5C558.2352941176471,74.59910486596696,565.8823529411766,68.81057268722464,573.529411764706,68.81057268722464C581.1764705882354,68.81057268722464,588.8235294117646,108.90656063618289,596.470588235294,108.90656063618289C604.1176470588234,108.90656063618289,611.7647058823529,86.68267034753892,619.4117647058823,79.65517241379308C627.0588235294117,72.62767448004725,634.7058823529412,66.74157303370788,642.3529411764706,66.74157303370788C650,66.74157303370788,657.6470588235294,88.80650576799962,665.2941176470588,97.45614035087718C672.9411764705882,106.10577493375477,680.5882352941177,113.08452457718303,688.2352941176471,118.63938053097345C695.8823529411765,124.19423648476385,703.5294117647059,126.52087953403993,711.1764705882352,130.7852760736196C718.8235294117646,135.04967261319928,726.4705882352941,144.22575976845155,734.1176470588235,144.22575976845155C741.7647058823529,144.22575976845155,749.4117647058823,111.20746432491765,757.0588235294117,111.20746432491765C764.7058823529411,111.20746432491765,772.3529411764706,111.20746432491765,780,116.82481751824815L780,0C772.3529411764706,0,764.7058823529411,0,757.0588235294117,0C749.4117647058823,0,741.7647058823529,0,734.1176470588235,0C726.4705882352941,0,718.8235294117646,0,711.1764705882352,0C703.5294117647059,0,695.8823529411765,0,688.2352941176471,0C680.5882352941177,0,672.9411764705882,0,665.2941176470588,0C657.6470588235294,0,650,0,642.3529411764706,0C634.7058823529412,0,627.0588235294117,21.744758310391724,619.4117647058823,29.945553539019954C611.7647058823529,38.146348767648185,604.1176470588234,49.20477137176937,596.470588235294,49.20477137176937C588.8235294117646,49.20477137176937,581.1764705882354,0,573.529411764706,0C565.8823529411766,0,558.2352941176471,0,550.5882352941177,0C542.9411764705883,0,535.2941176470588,49.616548940464156,527.6470588235294,49.616548940464156C520,49.616548940464156,512.3529411764706,37.02151726069774,504.7058823529412,35.17441860465118C497.0588235294118,33.32731994860461,489.4117647058824,32.40377062058133,481.764705882353,32.40377062058133C474.11764705882354,32.40377062058133,466.47058823529414,49.189189189189165,458.8235294117647,49.189189189189165C451.1764705882353,49.189189189189165,443.52941176470586,34.05963302752292,435.88235294117646,34.05963302752292C428.2352941176471,34.05963302752292,420.5882352941176,41.62548764629389,412.94117647058823,41.62548764629389C405.29411764705884,41.62548764629389,397.6470588235294,38.57142857142861,390,38.57142857142861C382.3529411764706,38.57142857142861,374.70588235294116,38.62212772916839,367.05882352941177,38.72352604464794C359.4117647058824,38.82492436012749,351.7647058823529,82.69257682349844,344.11764705882354,84.82646420824298C336.47058823529414,86.96035159298752,328.8235294117647,88.0272952853598,321.1764705882353,88.0272952853598C313.52941176470586,88.0272952853598,305.88235294117646,65.88597976315127,298.235294117647,61.950328707085475C290.5882352941176,58.0146776510197,282.94117647058823,56.04685212298682,275.29411764705884,56.04685212298682C267.64705882352945,56.04685212298682,260,95.00636942675158,252.3529411764706,95.00636942675158C244.7058823529412,95.00636942675158,237.05882352941177,33.74350086655113,229.41176470588235,33.74350086655113C221.76470588235293,33.74350086655113,214.11764705882354,43.791009735218005,206.47058823529412,57.391304347826065C198.8235294117647,70.99159896043412,191.1764705882353,115.34526854219948,183.52941176470588,115.34526854219948C175.88235294117646,115.34526854219948,168.23529411764707,114.496323842223,160.58823529411765,112.79843444227006C152.94117647058823,111.10054504231712,145.29411764705884,0,137.64705882352942,0C130,0,122.3529411764706,0,114.70588235294117,0C107.05882352941177,0,99.41176470588235,0,91.76470588235294,0C84.11764705882354,0,76.47058823529412,0,68.82352941176471,0C61.1764705882353,0,53.529411764705884,5.684341886080802e-14,45.88235294117647,5.684341886080802e-14C38.23529411764706,5.684341886080802e-14,30.58823529411765,0,22.941176470588236,0C15.294117647058822,0,7.647058823529412,0,0,0Z"></path><path fill="rgb(42, 120, 142)" d="M0,0C7.647058823529412,0,15.294117647058822,0,22.941176470588236,0C30.58823529411765,0,38.23529411764706,5.684341886080802e-14,45.88235294117647,5.684341886080802e-14C53.529411764705884,5.684341886080802e-14,61.1764705882353,0,68.82352941176471,0C76.47058823529412,0,84.11764705882354,0,91.76470588235294,0C99.41176470588235,0,107.05882352941177,0,114.70588235294117,0C122.3529411764706,0,130,0,137.64705882352942,0C145.29411764705884,0,152.94117647058823,111.10054504231712,160.58823529411765,112.79843444227006C168.23529411764707,114.496323842223,175.88235294117646,115.34526854219948,183.52941176470588,115.34526854219948C191.1764705882353,115.34526854219948,198.8235294117647,70.99159896043412,206.47058823529412,57.391304347826065C214.11764705882354,43.791009735218005,221.76470588235293,33.74350086655113,229.41176470588235,33.74350086655113C237.05882352941177,33.74350086655113,244.7058823529412,95.00636942675158,252.3529411764706,95.00636942675158C260,95.00636942675158,267.64705882352945,56.04685212298682,275.29411764705884,56.04685212298682C282.94117647058823,56.04685212298682,290.5882352941176,58.014677651019724,298.235294117647,61.950328707085475C305.88235294117646,65.88597976315124,313.52941176470586,88.0272952853598,321.1764705882353,88.0272952853598C328.8235294117647,88.0272952853598,336.47058823529414,86.96035159298752,344.11764705882354,84.82646420824298C351.7647058823529,82.69257682349844,359.4117647058824,38.82492436012749,367.05882352941177,38.72352604464794C374.70588235294116,38.62212772916839,382.3529411764706,38.57142857142861,390,38.57142857142861C397.6470588235294,38.57142857142861,405.29411764705884,41.62548764629389,412.94117647058823,41.62548764629389C420.5882352941176,41.62548764629389,428.2352941176471,34.05963302752292,435.88235294117646,34.05963302752292C443.52941176470586,34.05963302752292,451.1764705882353,49.189189189189165,458.8235294117647,49.189189189189165C466.47058823529414,49.189189189189165,474.11764705882354,32.40377062058133,481.764705882353,32.40377062058133C489.4117647058824,32.40377062058133,497.0588235294118,33.327319948604604,504.7058823529412,35.17441860465118C512.3529411764706,37.02151726069775,520,49.616548940464156,527.6470588235294,49.616548940464156C535.2941176470588,49.616548940464156,542.9411764705883,0,550.5882352941177,0C558.2352941176471,0,565.8823529411766,0,573.529411764706,0C581.1764705882354,0,588.8235294117646,49.20477137176937,596.470588235294,49.20477137176937C604.1176470588234,49.20477137176937,611.7647058823529,38.146348767648185,619.4117647058823,29.945553539019954C627.0588235294117,21.744758310391724,634.7058823529412,0,642.3529411764706,0C650,0,657.6470588235294,0,665.2941176470588,0C672.9411764705882,0,680.5882352941177,0,688.2352941176471,0C695.8823529411765,0,703.5294117647059,0,711.1764705882352,0C718.8235294117646,0,726.4705882352941,0,734.1176470588235,0C741.7647058823529,0,749.4117647058823,0,757.0588235294117,0C764.7058823529411,0,772.3529411764706,0,780,0L780,0C772.3529411764706,0,764.7058823529411,0,757.0588235294117,0C749.4117647058823,0,741.7647058823529,0,734.1176470588235,0C726.4705882352941,0,718.8235294117646,0,711.1764705882352,0C703.5294117647059,0,695.8823529411765,0,688.2352941176471,0C680.5882352941177,0,672.9411764705882,0,665.2941176470588,0C657.6470588235294,0,650,0,642.3529411764706,0C634.7058823529412,0,627.0588235294117,0,619.4117647058823,0C611.7647058823529,0,604.1176470588234,0,596.470588235294,0C588.8235294117646,0,581.1764705882354,0,573.529411764706,0C565.8823529411766,0,558.2352941176471,0,550.5882352941177,0C542.9411764705883,0,535.2941176470588,0,527.6470588235294,0C520,0,512.3529411764706,5.684341886080802e-14,504.7058823529412,5.684341886080802e-14C497.0588235294118,5.684341886080802e-14,489.4117647058824,5.684341886080802e-14,481.764705882353,5.684341886080802e-14C474.11764705882354,5.684341886080802e-14,466.47058823529414,0,458.8235294117647,0C451.1764705882353,0,443.52941176470586,0,435.88235294117646,0C428.2352941176471,0,420.5882352941176,0,412.94117647058823,0C405.29411764705884,0,397.6470588235294,5.684341886080802e-14,390,5.684341886080802e-14C382.3529411764706,5.684341886080802e-14,374.70588235294116,0,367.05882352941177,0C359.4117647058824,0,351.7647058823529,5.684341886080802e-14,344.11764705882354,5.684341886080802e-14C336.47058823529414,5.684341886080802e-14,328.8235294117647,0,321.1764705882353,0C313.52941176470586,0,305.88235294117646,0,298.235294117647,0C290.5882352941176,0,282.94117647058823,0,275.29411764705884,0C267.64705882352945,0,260,0,252.3529411764706,0C244.7058823529412,0,237.05882352941177,0,229.41176470588235,0C221.76470588235293,0,214.11764705882354,0,206.47058823529412,0C198.8235294117647,0,191.1764705882353,0,183.52941176470588,0C175.88235294117646,0,168.23529411764707,0,160.58823529411765,0C152.94117647058823,0,145.29411764705884,0,137.64705882352942,0C130,0,122.3529411764706,0,114.70588235294117,0C107.05882352941177,0,99.41176470588235,0,91.76470588235294,0C84.11764705882354,0,76.47058823529412,0,68.82352941176471,0C61.1764705882353,0,53.529411764705884,5.684341886080802e-14,45.88235294117647,5.684341886080802e-14C38.23529411764706,5.684341886080802e-14,30.58823529411765,0,22.941176470588236,0C15.294117647058822,0,7.647058823529412,0,0,0Z"></path></g>
</svg>
